solid OpenSCAD_Model
  facet normal 1 -0 0
    outer loop
      vertex 6.75 0 25
      vertex 6.75 1.35 0
      vertex 6.75 1.35 25
    endloop
  endfacet
  facet normal 1 0 0
    outer loop
      vertex 6.75 1.35 0
      vertex 6.75 0 25
      vertex 6.75 0 0
    endloop
  endfacet
  facet normal -1 0 0
    outer loop
      vertex 13.25 0 0
      vertex 13.25 1.35 25
      vertex 13.25 1.35 0
    endloop
  endfacet
  facet normal -1 -0 0
    outer loop
      vertex 13.25 1.35 25
      vertex 13.25 0 0
      vertex 13.25 0 25
    endloop
  endfacet
  facet normal 1 -0 0
    outer loop
      vertex 3.75 1.35 25
      vertex 3.75 2.35 0
      vertex 3.75 2.35 25
    endloop
  endfacet
  facet normal 1 0 0
    outer loop
      vertex 3.75 2.35 0
      vertex 3.75 1.35 25
      vertex 3.75 1.35 0
    endloop
  endfacet
  facet normal 0 1 -0
    outer loop
      vertex 6.75 1.35 0
      vertex 3.75 1.35 25
      vertex 6.75 1.35 25
    endloop
  endfacet
  facet normal 0 1 0
    outer loop
      vertex 3.75 1.35 25
      vertex 6.75 1.35 0
      vertex 3.75 1.35 0
    endloop
  endfacet
  facet normal 0 1 -0
    outer loop
      vertex 16.25 1.35 0
      vertex 13.25 1.35 25
      vertex 16.25 1.35 25
    endloop
  endfacet
  facet normal 0 1 0
    outer loop
      vertex 13.25 1.35 25
      vertex 16.25 1.35 0
      vertex 13.25 1.35 0
    endloop
  endfacet
  facet normal 0.746845 -0.664999 0
    outer loop
      vertex 3.75 2.35 25
      vertex 7 6 0
      vertex 7 6 25
    endloop
  endfacet
  facet normal 0.746845 -0.664999 0
    outer loop
      vertex 7 6 0
      vertex 3.75 2.35 25
      vertex 3.75 2.35 0
    endloop
  endfacet
  facet normal -1 0 0
    outer loop
      vertex 16.25 1.35 0
      vertex 16.25 2.35 25
      vertex 16.25 2.35 0
    endloop
  endfacet
  facet normal -1 -0 0
    outer loop
      vertex 16.25 2.35 25
      vertex 16.25 1.35 0
      vertex 16.25 1.35 25
    endloop
  endfacet
  facet normal 0 -1 0
    outer loop
      vertex 7 6 0
      vertex 13 6 25
      vertex 7 6 25
    endloop
  endfacet
  facet normal 0 -1 -0
    outer loop
      vertex 13 6 25
      vertex 7 6 0
      vertex 13 6 0
    endloop
  endfacet
  facet normal -0.746845 -0.664999 0
    outer loop
      vertex 16.25 2.35 0
      vertex 13 6 25
      vertex 13 6 0
    endloop
  endfacet
  facet normal -0.746845 -0.664999 0
    outer loop
      vertex 13 6 25
      vertex 16.25 2.35 0
      vertex 16.25 2.35 25
    endloop
  endfacet
  facet normal 0 1 -0
    outer loop
      vertex 1.35 6.75 0
      vertex 0 6.75 25
      vertex 1.35 6.75 25
    endloop
  endfacet
  facet normal 0 1 0
    outer loop
      vertex 0 6.75 25
      vertex 1.35 6.75 0
      vertex 0 6.75 0
    endloop
  endfacet
  facet normal 0 -1 0
    outer loop
      vertex 0 13.25 0
      vertex 1.35 13.25 25
      vertex 0 13.25 25
    endloop
  endfacet
  facet normal 0 -1 -0
    outer loop
      vertex 1.35 13.25 25
      vertex 0 13.25 0
      vertex 1.35 13.25 0
    endloop
  endfacet
  facet normal 0 1 -0
    outer loop
      vertex 2.35 3.75 0
      vertex 1.35 3.75 25
      vertex 2.35 3.75 25
    endloop
  endfacet
  facet normal 0 1 0
    outer loop
      vertex 1.35 3.75 25
      vertex 2.35 3.75 0
      vertex 1.35 3.75 0
    endloop
  endfacet
  facet normal 1 -0 0
    outer loop
      vertex 1.35 3.75 25
      vertex 1.35 6.75 0
      vertex 1.35 6.75 25
    endloop
  endfacet
  facet normal 1 0 0
    outer loop
      vertex 1.35 6.75 0
      vertex 1.35 3.75 25
      vertex 1.35 3.75 0
    endloop
  endfacet
  facet normal 1 -0 0
    outer loop
      vertex 1.35 13.25 25
      vertex 1.35 16.25 0
      vertex 1.35 16.25 25
    endloop
  endfacet
  facet normal 1 0 0
    outer loop
      vertex 1.35 16.25 0
      vertex 1.35 13.25 25
      vertex 1.35 13.25 0
    endloop
  endfacet
  facet normal -0.664999 0.746845 0
    outer loop
      vertex 6 7 0
      vertex 2.35 3.75 25
      vertex 6 7 25
    endloop
  endfacet
  facet normal -0.664999 0.746845 0
    outer loop
      vertex 2.35 3.75 25
      vertex 6 7 0
      vertex 2.35 3.75 0
    endloop
  endfacet
  facet normal 0 -1 0
    outer loop
      vertex 1.35 16.25 0
      vertex 2.35 16.25 25
      vertex 1.35 16.25 25
    endloop
  endfacet
  facet normal 0 -1 -0
    outer loop
      vertex 2.35 16.25 25
      vertex 1.35 16.25 0
      vertex 2.35 16.25 0
    endloop
  endfacet
  facet normal -1 0 0
    outer loop
      vertex 6 7 0
      vertex 6 13 25
      vertex 6 13 0
    endloop
  endfacet
  facet normal -1 -0 0
    outer loop
      vertex 6 13 25
      vertex 6 7 0
      vertex 6 7 25
    endloop
  endfacet
  facet normal -0.664999 -0.746845 0
    outer loop
      vertex 2.35 16.25 0
      vertex 6 13 25
      vertex 2.35 16.25 25
    endloop
  endfacet
  facet normal -0.664999 -0.746845 -0
    outer loop
      vertex 6 13 25
      vertex 2.35 16.25 0
      vertex 6 13 0
    endloop
  endfacet
  facet normal 1 -0 0
    outer loop
      vertex 6.75 18.65 25
      vertex 6.75 20 0
      vertex 6.75 20 25
    endloop
  endfacet
  facet normal 1 0 0
    outer loop
      vertex 6.75 20 0
      vertex 6.75 18.65 25
      vertex 6.75 18.65 0
    endloop
  endfacet
  facet normal -1 0 0
    outer loop
      vertex 13.25 18.65 0
      vertex 13.25 20 25
      vertex 13.25 20 0
    endloop
  endfacet
  facet normal -1 -0 0
    outer loop
      vertex 13.25 20 25
      vertex 13.25 18.65 0
      vertex 13.25 18.65 25
    endloop
  endfacet
  facet normal 1 -0 0
    outer loop
      vertex 3.75 17.65 25
      vertex 3.75 18.65 0
      vertex 3.75 18.65 25
    endloop
  endfacet
  facet normal 1 0 0
    outer loop
      vertex 3.75 18.65 0
      vertex 3.75 17.65 25
      vertex 3.75 17.65 0
    endloop
  endfacet
  facet normal 0 -1 0
    outer loop
      vertex 3.75 18.65 0
      vertex 6.75 18.65 25
      vertex 3.75 18.65 25
    endloop
  endfacet
  facet normal 0 -1 -0
    outer loop
      vertex 6.75 18.65 25
      vertex 3.75 18.65 0
      vertex 6.75 18.65 0
    endloop
  endfacet
  facet normal 0 -1 0
    outer loop
      vertex 13.25 18.65 0
      vertex 16.25 18.65 25
      vertex 13.25 18.65 25
    endloop
  endfacet
  facet normal 0 -1 -0
    outer loop
      vertex 16.25 18.65 25
      vertex 13.25 18.65 0
      vertex 16.25 18.65 0
    endloop
  endfacet
  facet normal 0.746845 0.664998 0
    outer loop
      vertex 7 14 25
      vertex 3.75 17.65 0
      vertex 3.75 17.65 25
    endloop
  endfacet
  facet normal 0.746845 0.664998 0
    outer loop
      vertex 3.75 17.65 0
      vertex 7 14 25
      vertex 7 14 0
    endloop
  endfacet
  facet normal -1 0 0
    outer loop
      vertex 16.25 17.65 0
      vertex 16.25 18.65 25
      vertex 16.25 18.65 0
    endloop
  endfacet
  facet normal -1 -0 0
    outer loop
      vertex 16.25 18.65 25
      vertex 16.25 17.65 0
      vertex 16.25 17.65 25
    endloop
  endfacet
  facet normal 0 1 -0
    outer loop
      vertex 13 14 0
      vertex 7 14 25
      vertex 13 14 25
    endloop
  endfacet
  facet normal 0 1 0
    outer loop
      vertex 7 14 25
      vertex 13 14 0
      vertex 7 14 0
    endloop
  endfacet
  facet normal -0.746845 0.664998 0
    outer loop
      vertex 13 14 0
      vertex 16.25 17.65 25
      vertex 16.25 17.65 0
    endloop
  endfacet
  facet normal -0.746845 0.664998 0
    outer loop
      vertex 16.25 17.65 25
      vertex 13 14 0
      vertex 13 14 25
    endloop
  endfacet
  facet normal 0 -1 0
    outer loop
      vertex 18.65 13.25 0
      vertex 20 13.25 25
      vertex 18.65 13.25 25
    endloop
  endfacet
  facet normal 0 -1 -0
    outer loop
      vertex 20 13.25 25
      vertex 18.65 13.25 0
      vertex 20 13.25 0
    endloop
  endfacet
  facet normal 0 1 -0
    outer loop
      vertex 20 6.75 0
      vertex 18.65 6.75 25
      vertex 20 6.75 25
    endloop
  endfacet
  facet normal 0 1 0
    outer loop
      vertex 18.65 6.75 25
      vertex 20 6.75 0
      vertex 18.65 6.75 0
    endloop
  endfacet
  facet normal 0 -1 0
    outer loop
      vertex 17.65 16.25 0
      vertex 18.65 16.25 25
      vertex 17.65 16.25 25
    endloop
  endfacet
  facet normal 0 -1 -0
    outer loop
      vertex 18.65 16.25 25
      vertex 17.65 16.25 0
      vertex 18.65 16.25 0
    endloop
  endfacet
  facet normal -1 0 0
    outer loop
      vertex 18.65 13.25 0
      vertex 18.65 16.25 25
      vertex 18.65 16.25 0
    endloop
  endfacet
  facet normal -1 -0 0
    outer loop
      vertex 18.65 16.25 25
      vertex 18.65 13.25 0
      vertex 18.65 13.25 25
    endloop
  endfacet
  facet normal -1 0 0
    outer loop
      vertex 18.65 3.75 0
      vertex 18.65 6.75 25
      vertex 18.65 6.75 0
    endloop
  endfacet
  facet normal -1 -0 0
    outer loop
      vertex 18.65 6.75 25
      vertex 18.65 3.75 0
      vertex 18.65 3.75 25
    endloop
  endfacet
  facet normal 0.664998 -0.746845 0
    outer loop
      vertex 14 13 0
      vertex 17.65 16.25 25
      vertex 14 13 25
    endloop
  endfacet
  facet normal 0.664998 -0.746845 0
    outer loop
      vertex 17.65 16.25 25
      vertex 14 13 0
      vertex 17.65 16.25 0
    endloop
  endfacet
  facet normal 0 1 -0
    outer loop
      vertex 18.65 3.75 0
      vertex 17.65 3.75 25
      vertex 18.65 3.75 25
    endloop
  endfacet
  facet normal 0 1 0
    outer loop
      vertex 17.65 3.75 25
      vertex 18.65 3.75 0
      vertex 17.65 3.75 0
    endloop
  endfacet
  facet normal 1 -0 0
    outer loop
      vertex 14 7 25
      vertex 14 13 0
      vertex 14 13 25
    endloop
  endfacet
  facet normal 1 0 0
    outer loop
      vertex 14 13 0
      vertex 14 7 25
      vertex 14 7 0
    endloop
  endfacet
  facet normal 0.664998 0.746845 -0
    outer loop
      vertex 17.65 3.75 0
      vertex 14 7 25
      vertex 17.65 3.75 25
    endloop
  endfacet
  facet normal 0.664998 0.746845 0
    outer loop
      vertex 14 7 25
      vertex 17.65 3.75 0
      vertex 14 7 0
    endloop
  endfacet
  facet normal -1 0 0
    outer loop
      vertex 0 0 0
      vertex 0 6.75 25
      vertex 0 6.75 0
    endloop
  endfacet
  facet normal -1 -0 0
    outer loop
      vertex 0 6.75 25
      vertex 0 0 0
      vertex 0 0 25
    endloop
  endfacet
  facet normal -1 0 0
    outer loop
      vertex 0 13.25 0
      vertex 0 20 25
      vertex 0 20 0
    endloop
  endfacet
  facet normal -1 -0 0
    outer loop
      vertex 0 20 25
      vertex 0 13.25 0
      vertex 0 13.25 25
    endloop
  endfacet
  facet normal 0 0 1
    outer loop
      vertex 1.35 6.75 25
      vertex 0 6.75 25
      vertex 1.35 3.75 25
    endloop
  endfacet
  facet normal 0 0 1
    outer loop
      vertex 6.75 20 25
      vertex 3.75 18.65 25
      vertex 6.75 18.65 25
    endloop
  endfacet
  facet normal 0 0 1
    outer loop
      vertex 3.75 18.65 25
      vertex 2.35 16.25 25
      vertex 3.75 17.65 25
    endloop
  endfacet
  facet normal 0 0 1
    outer loop
      vertex 3.75 18.65 25
      vertex 1.35 16.25 25
      vertex 2.35 16.25 25
    endloop
  endfacet
  facet normal -0 0 1
    outer loop
      vertex 0 20 25
      vertex 3.75 18.65 25
      vertex 6.75 20 25
    endloop
  endfacet
  facet normal 0 0 1
    outer loop
      vertex 0 20 25
      vertex 1.35 16.25 25
      vertex 3.75 18.65 25
    endloop
  endfacet
  facet normal 0 0 1
    outer loop
      vertex 0 13.25 25
      vertex 1.35 16.25 25
      vertex 0 20 25
    endloop
  endfacet
  facet normal 0 0 1
    outer loop
      vertex 1.35 16.25 25
      vertex 0 13.25 25
      vertex 1.35 13.25 25
    endloop
  endfacet
  facet normal 0 0 1
    outer loop
      vertex 8.23223 8.23223 25
      vertex 6 7 25
      vertex 7 6 25
    endloop
  endfacet
  facet normal 0 0 1
    outer loop
      vertex 6 7 25
      vertex 3.75 2.35 25
      vertex 7 6 25
    endloop
  endfacet
  facet normal 0 0 1
    outer loop
      vertex 3.75 2.35 25
      vertex 2.35 3.75 25
      vertex 3.75 1.35 25
    endloop
  endfacet
  facet normal -0 0 1
    outer loop
      vertex 2.35 3.75 25
      vertex 3.75 2.35 25
      vertex 6 7 25
    endloop
  endfacet
  facet normal 0 0 1
    outer loop
      vertex 20 20 25
      vertex 18.65 16.25 25
      vertex 20 13.25 25
    endloop
  endfacet
  facet normal -0 0 1
    outer loop
      vertex 16.25 18.65 25
      vertex 18.65 16.25 25
      vertex 20 20 25
    endloop
  endfacet
  facet normal 0 0 1
    outer loop
      vertex 18.65 16.25 25
      vertex 16.25 18.65 25
      vertex 17.65 16.25 25
    endloop
  endfacet
  facet normal -0 0 1
    outer loop
      vertex 13.25 20 25
      vertex 16.25 18.65 25
      vertex 20 20 25
    endloop
  endfacet
  facet normal 0 0 1
    outer loop
      vertex 16.25 18.65 25
      vertex 13.25 20 25
      vertex 13.25 18.65 25
    endloop
  endfacet
  facet normal 0 0 1
    outer loop
      vertex 20 13.25 25
      vertex 18.65 16.25 25
      vertex 18.65 13.25 25
    endloop
  endfacet
  facet normal -0 0 1
    outer loop
      vertex 16.25 17.65 25
      vertex 17.65 16.25 25
      vertex 16.25 18.65 25
    endloop
  endfacet
  facet normal 0 0 1
    outer loop
      vertex 16.25 17.65 25
      vertex 14 13 25
      vertex 17.65 16.25 25
    endloop
  endfacet
  facet normal 0 0 1
    outer loop
      vertex 11.7678 11.7678 25
      vertex 14 13 25
      vertex 13 14 25
    endloop
  endfacet
  facet normal -0 0 1
    outer loop
      vertex 13 14 25
      vertex 14 13 25
      vertex 16.25 17.65 25
    endloop
  endfacet
  facet normal 0 0 1
    outer loop
      vertex 14 7 25
      vertex 16.25 2.35 25
      vertex 17.65 3.75 25
    endloop
  endfacet
  facet normal 0 0 1
    outer loop
      vertex 14 7 25
      vertex 13 6 25
      vertex 16.25 2.35 25
    endloop
  endfacet
  facet normal 0 0 1
    outer loop
      vertex 14 13 25
      vertex 12.5 10 25
      vertex 14 7 25
    endloop
  endfacet
  facet normal -0 0 1
    outer loop
      vertex 11.7678 8.23223 25
      vertex 14 7 25
      vertex 12.5 10 25
    endloop
  endfacet
  facet normal 0 0 1
    outer loop
      vertex 14 13 25
      vertex 11.7678 11.7678 25
      vertex 12.5 10 25
    endloop
  endfacet
  facet normal 0 0 1
    outer loop
      vertex 13 14 25
      vertex 10 12.5 25
      vertex 11.7678 11.7678 25
    endloop
  endfacet
  facet normal -0 0 1
    outer loop
      vertex 7 14 25
      vertex 10 12.5 25
      vertex 13 14 25
    endloop
  endfacet
  facet normal -0 0 1
    outer loop
      vertex 6 13 25
      vertex 8.23223 11.7678 25
      vertex 7 14 25
    endloop
  endfacet
  facet normal 0 0 1
    outer loop
      vertex 10 12.5 25
      vertex 7 14 25
      vertex 8.23223 11.7678 25
    endloop
  endfacet
  facet normal 0 0 1
    outer loop
      vertex 18.65 3.75 25
      vertex 20 6.75 25
      vertex 18.65 6.75 25
    endloop
  endfacet
  facet normal 0 0 1
    outer loop
      vertex 20 6.75 25
      vertex 18.65 3.75 25
      vertex 20 0 25
    endloop
  endfacet
  facet normal 0 0 1
    outer loop
      vertex 16.25 1.35 25
      vertex 18.65 3.75 25
      vertex 17.65 3.75 25
    endloop
  endfacet
  facet normal 0 0 1
    outer loop
      vertex 16.25 1.35 25
      vertex 17.65 3.75 25
      vertex 16.25 2.35 25
    endloop
  endfacet
  facet normal 0 0 1
    outer loop
      vertex 18.65 3.75 25
      vertex 16.25 1.35 25
      vertex 20 0 25
    endloop
  endfacet
  facet normal 0 0 1
    outer loop
      vertex 13.25 0 25
      vertex 16.25 1.35 25
      vertex 13.25 1.35 25
    endloop
  endfacet
  facet normal 0 0 1
    outer loop
      vertex 16.25 1.35 25
      vertex 13.25 0 25
      vertex 20 0 25
    endloop
  endfacet
  facet normal -0 0 1
    outer loop
      vertex 3.75 1.35 25
      vertex 6.75 0 25
      vertex 6.75 1.35 25
    endloop
  endfacet
  facet normal -0 0 1
    outer loop
      vertex 1.35 3.75 25
      vertex 3.75 1.35 25
      vertex 2.35 3.75 25
    endloop
  endfacet
  facet normal 0 0 1
    outer loop
      vertex 3.75 1.35 25
      vertex 0 0 25
      vertex 6.75 0 25
    endloop
  endfacet
  facet normal 0 0 1
    outer loop
      vertex 1.35 3.75 25
      vertex 0 0 25
      vertex 3.75 1.35 25
    endloop
  endfacet
  facet normal 0 0 1
    outer loop
      vertex 0 0 25
      vertex 1.35 3.75 25
      vertex 0 6.75 25
    endloop
  endfacet
  facet normal 0 0 1
    outer loop
      vertex 14 7 25
      vertex 11.7678 8.23223 25
      vertex 13 6 25
    endloop
  endfacet
  facet normal -0 0 1
    outer loop
      vertex 10 7.5 25
      vertex 13 6 25
      vertex 11.7678 8.23223 25
    endloop
  endfacet
  facet normal 0 0 1
    outer loop
      vertex 7 6 25
      vertex 10 7.5 25
      vertex 8.23223 8.23223 25
    endloop
  endfacet
  facet normal 0 0 1
    outer loop
      vertex 10 7.5 25
      vertex 7 6 25
      vertex 13 6 25
    endloop
  endfacet
  facet normal 0 0 1
    outer loop
      vertex 6 7 25
      vertex 8.23223 8.23223 25
      vertex 7.5 10 25
    endloop
  endfacet
  facet normal 0 0 1
    outer loop
      vertex 8.23223 11.7678 25
      vertex 6 13 25
      vertex 7.5 10 25
    endloop
  endfacet
  facet normal 0 0 1
    outer loop
      vertex 6 7 25
      vertex 7.5 10 25
      vertex 6 13 25
    endloop
  endfacet
  facet normal 0 0 1
    outer loop
      vertex 3.75 17.65 25
      vertex 6 13 25
      vertex 7 14 25
    endloop
  endfacet
  facet normal 0 0 1
    outer loop
      vertex 6 13 25
      vertex 3.75 17.65 25
      vertex 2.35 16.25 25
    endloop
  endfacet
  facet normal 1 -0 0
    outer loop
      vertex 20 0 25
      vertex 20 6.75 0
      vertex 20 6.75 25
    endloop
  endfacet
  facet normal 1 0 0
    outer loop
      vertex 20 6.75 0
      vertex 20 0 25
      vertex 20 0 0
    endloop
  endfacet
  facet normal 1 -0 0
    outer loop
      vertex 20 13.25 25
      vertex 20 20 0
      vertex 20 20 25
    endloop
  endfacet
  facet normal 1 0 0
    outer loop
      vertex 20 20 0
      vertex 20 13.25 25
      vertex 20 13.25 0
    endloop
  endfacet
  facet normal 0 0 -1
    outer loop
      vertex 1.35 13.25 0
      vertex 0 13.25 0
      vertex 1.35 16.25 0
    endloop
  endfacet
  facet normal 0 0 -1
    outer loop
      vertex 6.75 0 0
      vertex 3.75 1.35 0
      vertex 6.75 1.35 0
    endloop
  endfacet
  facet normal 0 0 -1
    outer loop
      vertex 3.75 1.35 0
      vertex 2.35 3.75 0
      vertex 3.75 2.35 0
    endloop
  endfacet
  facet normal 0 0 -1
    outer loop
      vertex 3.75 1.35 0
      vertex 1.35 3.75 0
      vertex 2.35 3.75 0
    endloop
  endfacet
  facet normal 0 0 -1
    outer loop
      vertex 0 0 0
      vertex 3.75 1.35 0
      vertex 6.75 0 0
    endloop
  endfacet
  facet normal 0 0 -1
    outer loop
      vertex 0 0 0
      vertex 1.35 3.75 0
      vertex 3.75 1.35 0
    endloop
  endfacet
  facet normal 0 0 -1
    outer loop
      vertex 0 6.75 0
      vertex 1.35 3.75 0
      vertex 0 0 0
    endloop
  endfacet
  facet normal 0 0 -1
    outer loop
      vertex 1.35 3.75 0
      vertex 0 6.75 0
      vertex 1.35 6.75 0
    endloop
  endfacet
  facet normal 0 0 -1
    outer loop
      vertex 8.23223 11.7678 0
      vertex 6 13 0
      vertex 7 14 0
    endloop
  endfacet
  facet normal 0 0 -1
    outer loop
      vertex 6 13 0
      vertex 3.75 17.65 0
      vertex 7 14 0
    endloop
  endfacet
  facet normal -0 0 -1
    outer loop
      vertex 3.75 17.65 0
      vertex 2.35 16.25 0
      vertex 3.75 18.65 0
    endloop
  endfacet
  facet normal 0 0 -1
    outer loop
      vertex 2.35 16.25 0
      vertex 3.75 17.65 0
      vertex 6 13 0
    endloop
  endfacet
  facet normal 0 0 -1
    outer loop
      vertex 20 0 0
      vertex 18.65 3.75 0
      vertex 20 6.75 0
    endloop
  endfacet
  facet normal 0 0 -1
    outer loop
      vertex 16.25 1.35 0
      vertex 18.65 3.75 0
      vertex 20 0 0
    endloop
  endfacet
  facet normal -0 0 -1
    outer loop
      vertex 18.65 3.75 0
      vertex 16.25 1.35 0
      vertex 17.65 3.75 0
    endloop
  endfacet
  facet normal 0 0 -1
    outer loop
      vertex 13.25 0 0
      vertex 16.25 1.35 0
      vertex 20 0 0
    endloop
  endfacet
  facet normal -0 0 -1
    outer loop
      vertex 16.25 1.35 0
      vertex 13.25 0 0
      vertex 13.25 1.35 0
    endloop
  endfacet
  facet normal -0 0 -1
    outer loop
      vertex 20 6.75 0
      vertex 18.65 3.75 0
      vertex 18.65 6.75 0
    endloop
  endfacet
  facet normal 0 0 -1
    outer loop
      vertex 16.25 2.35 0
      vertex 17.65 3.75 0
      vertex 16.25 1.35 0
    endloop
  endfacet
  facet normal 0 0 -1
    outer loop
      vertex 16.25 2.35 0
      vertex 14 7 0
      vertex 17.65 3.75 0
    endloop
  endfacet
  facet normal 0 0 -1
    outer loop
      vertex 11.7678 8.23223 0
      vertex 14 7 0
      vertex 13 6 0
    endloop
  endfacet
  facet normal 0 0 -1
    outer loop
      vertex 13 6 0
      vertex 14 7 0
      vertex 16.25 2.35 0
    endloop
  endfacet
  facet normal 0 0 -1
    outer loop
      vertex 14 13 0
      vertex 16.25 17.65 0
      vertex 17.65 16.25 0
    endloop
  endfacet
  facet normal 0 0 -1
    outer loop
      vertex 14 13 0
      vertex 13 14 0
      vertex 16.25 17.65 0
    endloop
  endfacet
  facet normal 0 0 -1
    outer loop
      vertex 14 7 0
      vertex 12.5 10 0
      vertex 14 13 0
    endloop
  endfacet
  facet normal 0 0 -1
    outer loop
      vertex 11.7678 11.7678 0
      vertex 14 13 0
      vertex 12.5 10 0
    endloop
  endfacet
  facet normal 0 0 -1
    outer loop
      vertex 14 7 0
      vertex 11.7678 8.23223 0
      vertex 12.5 10 0
    endloop
  endfacet
  facet normal 0 0 -1
    outer loop
      vertex 13 6 0
      vertex 10 7.5 0
      vertex 11.7678 8.23223 0
    endloop
  endfacet
  facet normal 0 0 -1
    outer loop
      vertex 7 6 0
      vertex 10 7.5 0
      vertex 13 6 0
    endloop
  endfacet
  facet normal 0 0 -1
    outer loop
      vertex 6 7 0
      vertex 8.23223 8.23223 0
      vertex 7 6 0
    endloop
  endfacet
  facet normal -0 0 -1
    outer loop
      vertex 10 7.5 0
      vertex 7 6 0
      vertex 8.23223 8.23223 0
    endloop
  endfacet
  facet normal 0 0 -1
    outer loop
      vertex 18.65 16.25 0
      vertex 20 13.25 0
      vertex 18.65 13.25 0
    endloop
  endfacet
  facet normal 0 0 -1
    outer loop
      vertex 20 13.25 0
      vertex 18.65 16.25 0
      vertex 20 20 0
    endloop
  endfacet
  facet normal 0 0 -1
    outer loop
      vertex 16.25 18.65 0
      vertex 18.65 16.25 0
      vertex 17.65 16.25 0
    endloop
  endfacet
  facet normal 0 0 -1
    outer loop
      vertex 16.25 18.65 0
      vertex 17.65 16.25 0
      vertex 16.25 17.65 0
    endloop
  endfacet
  facet normal 0 0 -1
    outer loop
      vertex 18.65 16.25 0
      vertex 16.25 18.65 0
      vertex 20 20 0
    endloop
  endfacet
  facet normal 0 0 -1
    outer loop
      vertex 13.25 20 0
      vertex 16.25 18.65 0
      vertex 13.25 18.65 0
    endloop
  endfacet
  facet normal 0 0 -1
    outer loop
      vertex 16.25 18.65 0
      vertex 13.25 20 0
      vertex 20 20 0
    endloop
  endfacet
  facet normal 0 0 -1
    outer loop
      vertex 3.75 18.65 0
      vertex 6.75 20 0
      vertex 6.75 18.65 0
    endloop
  endfacet
  facet normal 0 0 -1
    outer loop
      vertex 1.35 16.25 0
      vertex 3.75 18.65 0
      vertex 2.35 16.25 0
    endloop
  endfacet
  facet normal 0 0 -1
    outer loop
      vertex 3.75 18.65 0
      vertex 0 20 0
      vertex 6.75 20 0
    endloop
  endfacet
  facet normal 0 0 -1
    outer loop
      vertex 1.35 16.25 0
      vertex 0 20 0
      vertex 3.75 18.65 0
    endloop
  endfacet
  facet normal 0 0 -1
    outer loop
      vertex 0 20 0
      vertex 1.35 16.25 0
      vertex 0 13.25 0
    endloop
  endfacet
  facet normal -0 0 -1
    outer loop
      vertex 14 13 0
      vertex 11.7678 11.7678 0
      vertex 13 14 0
    endloop
  endfacet
  facet normal 0 0 -1
    outer loop
      vertex 10 12.5 0
      vertex 13 14 0
      vertex 11.7678 11.7678 0
    endloop
  endfacet
  facet normal 0 0 -1
    outer loop
      vertex 7 14 0
      vertex 10 12.5 0
      vertex 8.23223 11.7678 0
    endloop
  endfacet
  facet normal 0 0 -1
    outer loop
      vertex 10 12.5 0
      vertex 7 14 0
      vertex 13 14 0
    endloop
  endfacet
  facet normal 0 0 -1
    outer loop
      vertex 6 13 0
      vertex 8.23223 11.7678 0
      vertex 7.5 10 0
    endloop
  endfacet
  facet normal -0 0 -1
    outer loop
      vertex 8.23223 8.23223 0
      vertex 6 7 0
      vertex 7.5 10 0
    endloop
  endfacet
  facet normal 0 0 -1
    outer loop
      vertex 6 13 0
      vertex 7.5 10 0
      vertex 6 7 0
    endloop
  endfacet
  facet normal 0 0 -1
    outer loop
      vertex 3.75 2.35 0
      vertex 6 7 0
      vertex 7 6 0
    endloop
  endfacet
  facet normal 0 0 -1
    outer loop
      vertex 6 7 0
      vertex 3.75 2.35 0
      vertex 2.35 3.75 0
    endloop
  endfacet
  facet normal 0 -1 0
    outer loop
      vertex 0 0 0
      vertex 6.75 0 25
      vertex 0 0 25
    endloop
  endfacet
  facet normal 0 -1 -0
    outer loop
      vertex 6.75 0 25
      vertex 0 0 0
      vertex 6.75 0 0
    endloop
  endfacet
  facet normal 0 -1 0
    outer loop
      vertex 13.25 0 0
      vertex 20 0 25
      vertex 13.25 0 25
    endloop
  endfacet
  facet normal 0 -1 -0
    outer loop
      vertex 20 0 25
      vertex 13.25 0 0
      vertex 20 0 0
    endloop
  endfacet
  facet normal 0 1 -0
    outer loop
      vertex 20 20 0
      vertex 13.25 20 25
      vertex 20 20 25
    endloop
  endfacet
  facet normal 0 1 0
    outer loop
      vertex 13.25 20 25
      vertex 20 20 0
      vertex 13.25 20 0
    endloop
  endfacet
  facet normal 0 1 -0
    outer loop
      vertex 6.75 20 0
      vertex 0 20 25
      vertex 6.75 20 25
    endloop
  endfacet
  facet normal 0 1 0
    outer loop
      vertex 0 20 25
      vertex 6.75 20 0
      vertex 0 20 0
    endloop
  endfacet
  facet normal -0.92388 -0.382683 0
    outer loop
      vertex 12.5 10 0
      vertex 11.7678 11.7678 25
      vertex 11.7678 11.7678 0
    endloop
  endfacet
  facet normal -0.92388 -0.382683 0
    outer loop
      vertex 11.7678 11.7678 25
      vertex 12.5 10 0
      vertex 12.5 10 25
    endloop
  endfacet
  facet normal 0.382683 -0.92388 0
    outer loop
      vertex 8.23223 11.7678 0
      vertex 10 12.5 25
      vertex 8.23223 11.7678 25
    endloop
  endfacet
  facet normal 0.382683 -0.92388 0
    outer loop
      vertex 10 12.5 25
      vertex 8.23223 11.7678 0
      vertex 10 12.5 0
    endloop
  endfacet
  facet normal -0.382683 -0.92388 0
    outer loop
      vertex 10 12.5 0
      vertex 11.7678 11.7678 25
      vertex 10 12.5 25
    endloop
  endfacet
  facet normal -0.382683 -0.92388 -0
    outer loop
      vertex 11.7678 11.7678 25
      vertex 10 12.5 0
      vertex 11.7678 11.7678 0
    endloop
  endfacet
  facet normal 0.92388 -0.382683 0
    outer loop
      vertex 7.5 10 25
      vertex 8.23223 11.7678 0
      vertex 8.23223 11.7678 25
    endloop
  endfacet
  facet normal 0.92388 -0.382683 0
    outer loop
      vertex 8.23223 11.7678 0
      vertex 7.5 10 25
      vertex 7.5 10 0
    endloop
  endfacet
  facet normal -0.92388 0.382683 0
    outer loop
      vertex 11.7678 8.23223 0
      vertex 12.5 10 25
      vertex 12.5 10 0
    endloop
  endfacet
  facet normal -0.92388 0.382683 0
    outer loop
      vertex 12.5 10 25
      vertex 11.7678 8.23223 0
      vertex 11.7678 8.23223 25
    endloop
  endfacet
  facet normal 0.382683 0.92388 -0
    outer loop
      vertex 10 7.5 0
      vertex 8.23223 8.23223 25
      vertex 10 7.5 25
    endloop
  endfacet
  facet normal 0.382683 0.92388 0
    outer loop
      vertex 8.23223 8.23223 25
      vertex 10 7.5 0
      vertex 8.23223 8.23223 0
    endloop
  endfacet
  facet normal 0.92388 0.382683 0
    outer loop
      vertex 8.23223 8.23223 25
      vertex 7.5 10 0
      vertex 7.5 10 25
    endloop
  endfacet
  facet normal 0.92388 0.382683 0
    outer loop
      vertex 7.5 10 0
      vertex 8.23223 8.23223 25
      vertex 8.23223 8.23223 0
    endloop
  endfacet
  facet normal -0.382683 0.92388 0
    outer loop
      vertex 11.7678 8.23223 0
      vertex 10 7.5 25
      vertex 11.7678 8.23223 25
    endloop
  endfacet
  facet normal -0.382683 0.92388 0
    outer loop
      vertex 10 7.5 25
      vertex 11.7678 8.23223 0
      vertex 10 7.5 0
    endloop
  endfacet
endsolid OpenSCAD_Model
