999
Inkscape export via OpenSCAD DXF Export
  0
SECTION
  2
HEADER
  9
$ACADVER
  1
AC1014
  9
$HANDSEED
  5
FFFF
  9
$MEASUREMENT
 70
     1
  0
ENDSEC
  0
SECTION
  2
TABLES
  0
TABLE
  2
VPORT
  5
8
330
0
100
AcDbSymbolTable
 70
     4
  0
VPORT
  5
2E
330
8
100
AcDbSymbolTableRecord
100
AcDbViewportTableRecord
  2
*ACTIVE
 70
     0
 10
0.0
 20
0.0
 11
1.0
 21
1.0
 12
210.0
 22
148.5
 13
0.0
 23
0.0
 14
10.0
 24
10.0
 15
10.0
 25
10.0
 16
0.0
 26
0.0
 36
1.0
 17
0.0
 27
0.0
 37
0.0
 40
341.0
 41
1.24
 42
50.0
 43
0.0
 44
0.0
 50
0.0
 51
0.0
 71
     0
 72
   100
 73
     1
 74
     3
 75
     0
 76
     0
 77
     0
 78
     0
  0
ENDTAB
  0
TABLE
  2
LTYPE
  5
5
330
0
100
AcDbSymbolTable
 70
     1
  0
LTYPE
  5
14
330
5
100
AcDbSymbolTableRecord
100
AcDbLinetypeTableRecord
  2
BYBLOCK
 70
     0
  3

 72
    65
 73
     0
 40
0.0
  0
LTYPE
  5
15
330
5
100
AcDbSymbolTableRecord
100
AcDbLinetypeTableRecord
  2
BYLAYER
 70
     0
  3

 72
    65
 73
     0
 40
0.0
  0
LTYPE
  5
16
330
5
100
AcDbSymbolTableRecord
100
AcDbLinetypeTableRecord
  2
CONTINUOUS
 70
     0
  3
Solid line
 72
    65
 73
     0
 40
0.0
  0
ENDTAB
  0
TABLE
0
TABLE
2
LAYER
5
2
330
0
100
AcDbSymbolTable
70
1
0
LAYER
5
10
330
2
100
AcDbSymbolTableRecord
100
AcDbLayerTableRecord
2
Layer_1
70
0
62
7
6
CONTINUOUS
0
ENDTAB
0
ENDSEC
  0
ENDTAB
  0
TABLE
  2
STYLE
  5
3
330
0
100
AcDbSymbolTable
 70
     1
  0
STYLE
  5
11
330
3
100
AcDbSymbolTableRecord
100
AcDbTextStyleTableRecord
  2
STANDARD
 70
     0
 40
0.0
 41
1.0
 50
0.0
 71
     0
 42
2.5
  3
txt
  4

  0
ENDTAB
  0
TABLE
  2
VIEW
  5
6
330
0
100
AcDbSymbolTable
 70
     0
  0
ENDTAB
  0
TABLE
  2
UCS
  5
7
330
0
100
AcDbSymbolTable
 70
     0
  0
ENDTAB
  0
TABLE
  2
APPID
  5
9
330
0
100
AcDbSymbolTable
 70
     2
  0
APPID
  5
12
330
9
100
AcDbSymbolTableRecord
100
AcDbRegAppTableRecord
  2
ACAD
 70
     0
  0
ENDTAB
  0
TABLE
  2
DIMSTYLE
  5
A
330
0
100
AcDbSymbolTable
 70
     1
  0
DIMSTYLE
105
27
330
A
100
AcDbSymbolTableRecord
100
AcDbDimStyleTableRecord
  2
ISO-25
 70
     0
  3

  4

  5

  6

  7

 40
1.0
 41
2.5
 42
0.625
 43
3.75
 44
1.25
 45
0.0
 46
0.0
 47
0.0
 48
0.0
140
2.5
141
2.5
142
0.0
143
0.03937007874016
144
1.0
145
0.0
146
1.0
147
0.625
 71
     0
 72
     0
 73
     0
 74
     0
 75
     0
 76
     0
 77
     1
 78
     8
170
     0
171
     3
172
     1
173
     0
174
     0
175
     0
176
     0
177
     0
178
     0
270
     2
271
     2
272
     2
273
     2
274
     3
340
11
275
     0
280
     0
281
     0
282
     0
283
     0
284
     8
285
     0
286
     0
287
     3
288
     0
  0
ENDTAB
  0
TABLE
  2
BLOCK_RECORD
  5
1
330
0
100
AcDbSymbolTable
 70
     1
  0
BLOCK_RECORD
  5
1F
330
1
100
AcDbSymbolTableRecord
100
AcDbBlockTableRecord
  2
*MODEL_SPACE
  0
BLOCK_RECORD
  5
1B
330
1
100
AcDbSymbolTableRecord
100
AcDbBlockTableRecord
  2
*PAPER_SPACE
  0
ENDTAB
  0
ENDSEC
  0
SECTION
  2
BLOCKS
  0
BLOCK
  5
20
330
1F
100
AcDbEntity
  8
0
100
AcDbBlockBegin
  2
*MODEL_SPACE
 70
     0
 10
0.0
 20
0.0
 30
0.0
  3
*MODEL_SPACE
  1

  0
ENDBLK
  5
21
330
1F
100
AcDbEntity
  8
0
100
AcDbBlockEnd
  0
BLOCK
  5
1C
330
1B
100
AcDbEntity
 67
     1
  8
0
100
AcDbBlockBegin
  2
*PAPER_SPACE
  1

  0
ENDBLK
  5
1D
330
1B
100
AcDbEntity
 67
     1
  8
0
100
AcDbBlockEnd
  0
ENDSEC
  0
SECTION
  2
ENTITIES
0
DIMENSION
5
83
100
AcDbEntity
62
256
370
-1
6
ByLayer
1
total_width
3
Standard
70
0
71
5
72
1
41
1.0
100
AcDbAlignedDimension
13
-0.000000
23
0.000000
33
0.0
14
56.444444
24
0.000000
34
0.0
50
0.000000
100
AcDbRotatedDimension
0
DIMENSION
5
83
100
AcDbEntity
62
256
370
-1
6
ByLayer
1
total_height
3
Standard
70
0
71
5
72
1
41
1.0
100
AcDbAlignedDimension
13
0.000000
23
2.087804
33
0.0
14
0.000000
24
54.356639
34
0.0
50
90.000000
100
AcDbRotatedDimension
0
DIMENSION
8
Layer_1
5
83
100
AcDbEntity
62
256
370
-1
6
ByLayer
1
Layer_1_width
3
Standard
70
0
71
5
72
1
41
1.0
100
AcDbAlignedDimension
13
-0.000000
23
0.000000
33
0.0
14
56.444444
24
0.000000
34
0.0
50
0.000000
100
AcDbRotatedDimension
0
DIMENSION
8
Layer_1
5
83
100
AcDbEntity
62
256
370
-1
6
ByLayer
1
Layer_1_height
3
Standard
70
0
71
5
72
1
41
1.0
100
AcDbAlignedDimension
13
0.000000
23
2.087804
33
0.0
14
0.000000
24
54.356639
34
0.0
50
90.000000
100
AcDbRotatedDimension
0
LWPOLYLINE
100
AcDbPolyline
8
Layer_1
90
66
70
0
10
14.817240
20
54.356639
30
0.0
10
13.302958
20
54.280093
30
0.0
10
11.832259
20
54.055432
30
0.0
10
9.051480
20
53.191633
30
0.0
10
6.534633
20
51.824974
30
0.0
10
4.341450
20
50.015186
30
0.0
10
2.531663
20
47.822002
30
0.0
10
1.165005
20
45.305153
30
0.0
10
0.301207
20
42.524372
30
0.0
10
0.076546
20
41.053673
30
0.0
10
-0.000000
20
39.539391
30
0.0
10
0.191292
20
36.557456
30
0.0
10
0.743553
20
33.827563
30
0.0
10
1.624366
20
31.314024
30
0.0
10
2.801310
20
28.981151
30
0.0
10
4.241966
20
26.793254
30
0.0
10
5.913915
20
24.714644
30
0.0
10
7.784737
20
22.709633
30
0.0
10
9.822012
20
20.742531
30
0.0
10
14.266247
20
16.779301
30
0.0
10
18.987263
20
12.539444
30
0.0
10
21.370516
20
10.226558
30
0.0
10
23.725706
20
7.737449
30
0.0
10
26.020413
20
5.036427
30
0.0
10
28.222219
20
2.087804
30
0.0
10
30.321163
20
5.025630
30
0.0
10
32.539524
20
7.730259
30
0.0
10
34.842140
20
10.234601
30
0.0
10
37.193849
20
12.571566
30
0.0
10
41.903894
20
16.875012
30
0.0
10
46.388360
20
20.903885
30
0.0
10
48.458095
20
22.897634
30
0.0
10
50.365948
20
24.921472
30
0.0
10
52.076756
20
27.008311
30
0.0
10
53.555357
20
29.191061
30
0.0
10
54.766589
20
31.502633
30
0.0
10
55.675289
20
33.975938
30
0.0
10
56.246295
20
36.643887
30
0.0
10
56.444444
20
39.539391
30
0.0
10
56.367898
20
41.053673
30
0.0
10
56.143238
20
42.524373
30
0.0
10
55.279440
20
45.305154
30
0.0
10
53.912782
20
47.822003
30
0.0
10
52.102996
20
50.015187
30
0.0
10
49.909813
20
51.824975
30
0.0
10
47.392964
20
53.191635
30
0.0
10
44.612183
20
54.055433
30
0.0
10
43.141483
20
54.280094
30
0.0
10
41.627199
20
54.356639
30
0.0
10
39.444878
20
54.196272
30
0.0
10
37.362474
20
53.730531
30
0.0
10
35.402416
20
52.982458
30
0.0
10
33.587128
20
51.975095
30
0.0
10
31.939039
20
50.731483
30
0.0
10
30.480573
20
49.274664
30
0.0
10
29.234158
20
47.627679
30
0.0
10
28.222219
20
45.813571
30
0.0
10
27.210285
20
47.627679
30
0.0
10
25.963873
20
49.274664
30
0.0
10
24.505409
20
50.731483
30
0.0
10
22.857320
20
51.975096
30
0.0
10
21.042032
20
52.982459
30
0.0
10
19.081972
20
53.730532
30
0.0
10
16.999566
20
54.196273
30
0.0
10
14.817240
20
54.356639
30
0.0
10
14.817240
20
54.356639
30
0.0
  0
ENDSEC
  0
SECTION
  2
OBJECTS
  0
DICTIONARY
  5
C
330
0
100
AcDbDictionary
  3
ACAD_GROUP
350
D
  3
ACAD_MLINESTYLE
350
17
  0
DICTIONARY
  5
D
330
C
100
AcDbDictionary
  0
DICTIONARY
  5
1A
330
C
100
AcDbDictionary
  0
DICTIONARY
  5
17
330
C
100
AcDbDictionary
  3
STANDARD
350
18
  0
DICTIONARY
  5
19
330
C
100
AcDbDictionary
  0
ENDSEC
  0
EOF
