solid OpenSCAD_Model
  facet normal -0.707107 -0.707107 0
    outer loop
      vertex -2.5 -3 37.75
      vertex -3 -2.5 40
      vertex -3 -2.5 37.75
    endloop
  endfacet
  facet normal -0.707107 -0.707107 0
    outer loop
      vertex -3 -2.5 40
      vertex -2.5 -3 37.75
      vertex -2.5 -3 40
    endloop
  endfacet
  facet normal -0.707107 -0.707107 0
    outer loop
      vertex -2.5 -3 20.3
      vertex -3 -2.5 28.75
      vertex -3 -2.5 20.3
    endloop
  endfacet
  facet normal -0.707107 -0.707107 0
    outer loop
      vertex -3 -2.5 28.75
      vertex -2.5 -3 20.3
      vertex -2.5 -3 28.75
    endloop
  endfacet
  facet normal 0.707107 -0.707107 0
    outer loop
      vertex 2.5 -3 40
      vertex 3 -2.5 37.75
      vertex 3 -2.5 40
    endloop
  endfacet
  facet normal 0.707107 -0.707107 0
    outer loop
      vertex 3 -2.5 37.75
      vertex 2.5 -3 40
      vertex 2.5 -3 37.75
    endloop
  endfacet
  facet normal 0.707107 -0.707107 0
    outer loop
      vertex 2.5 -3 28.75
      vertex 3 -2.5 20.3
      vertex 3 -2.5 28.75
    endloop
  endfacet
  facet normal 0.707107 -0.707107 0
    outer loop
      vertex 3 -2.5 20.3
      vertex 2.5 -3 28.75
      vertex 2.5 -3 20.3
    endloop
  endfacet
  facet normal 0.707107 0 -0.707107
    outer loop
      vertex 3 37.75 -2.5
      vertex 2.5 40 -3
      vertex 3 40 -2.5
    endloop
  endfacet
  facet normal 0.707107 0 -0.707107
    outer loop
      vertex 2.5 40 -3
      vertex 3 37.75 -2.5
      vertex 2.5 37.75 -3
    endloop
  endfacet
  facet normal 0.707107 0 -0.707107
    outer loop
      vertex 3 20.3 -2.5
      vertex 2.5 28.75 -3
      vertex 3 28.75 -2.5
    endloop
  endfacet
  facet normal 0.707107 0 -0.707107
    outer loop
      vertex 2.5 28.75 -3
      vertex 3 20.3 -2.5
      vertex 2.5 20.3 -3
    endloop
  endfacet
  facet normal -0.707107 0 -0.707107
    outer loop
      vertex -2.5 37.75 -3
      vertex -3 40 -2.5
      vertex -2.5 40 -3
    endloop
  endfacet
  facet normal -0.707107 -0 -0.707107
    outer loop
      vertex -3 40 -2.5
      vertex -2.5 37.75 -3
      vertex -3 37.75 -2.5
    endloop
  endfacet
  facet normal -0.707107 0 -0.707107
    outer loop
      vertex -2.5 20.3 -3
      vertex -3 28.75 -2.5
      vertex -2.5 28.75 -3
    endloop
  endfacet
  facet normal -0.707107 0 -0.707107
    outer loop
      vertex -3 28.75 -2.5
      vertex -2.5 20.3 -3
      vertex -3 20.3 -2.5
    endloop
  endfacet
  facet normal -1 0 0
    outer loop
      vertex -3 0 20.3
      vertex -3 -7.62939e-007 28.75
      vertex -3 0 40
    endloop
  endfacet
  facet normal -1 0 0
    outer loop
      vertex -3 -2.5 20.3
      vertex -3 -7.62939e-007 28.75
      vertex -3 0 20.3
    endloop
  endfacet
  facet normal -1 -0 0
    outer loop
      vertex -3 -7.62939e-007 28.75
      vertex -3 -2.5 20.3
      vertex -3 -2.5 28.75
    endloop
  endfacet
  facet normal -1 0 0
    outer loop
      vertex -3 -7.62939e-007 37.75
      vertex -3 0 40
      vertex -3 -7.62939e-007 28.75
    endloop
  endfacet
  facet normal -1 0 0
    outer loop
      vertex -3 -2.5 37.75
      vertex -3 0 40
      vertex -3 -7.62939e-007 37.75
    endloop
  endfacet
  facet normal -1 -0 0
    outer loop
      vertex -3 0 40
      vertex -3 -2.5 37.75
      vertex -3 -2.5 40
    endloop
  endfacet
  facet normal 0 0 1
    outer loop
      vertex 10 2.4 40
      vertex 3 0 40
      vertex 10 0 40
    endloop
  endfacet
  facet normal 0 0 1
    outer loop
      vertex 3 0 40
      vertex 2.5 -3 40
      vertex 3 -2.5 40
    endloop
  endfacet
  facet normal 0 0 1
    outer loop
      vertex 3 0 40
      vertex -2.5 -3 40
      vertex 2.5 -3 40
    endloop
  endfacet
  facet normal 0 0 1
    outer loop
      vertex 3 0 40
      vertex -3 0 40
      vertex -2.5 -3 40
    endloop
  endfacet
  facet normal 0 0 1
    outer loop
      vertex 10 2.4 40
      vertex -3 0 40
      vertex 3 0 40
    endloop
  endfacet
  facet normal -0 0 1
    outer loop
      vertex -10 2.4 40
      vertex -3 0 40
      vertex 10 2.4 40
    endloop
  endfacet
  facet normal 0 0 1
    outer loop
      vertex -3 0 40
      vertex -10 2.4 40
      vertex -10 0 40
    endloop
  endfacet
  facet normal 0 0 1
    outer loop
      vertex -2.5 -3 40
      vertex -3 0 40
      vertex -3 -2.5 40
    endloop
  endfacet
  facet normal 1 0 0
    outer loop
      vertex 3 40 0
      vertex 3 37.75 -7.62939e-007
      vertex 3 40 -2.5
    endloop
  endfacet
  facet normal 1 0 0
    outer loop
      vertex 3 40 0
      vertex 3 28.75 -7.62939e-007
      vertex 3 37.75 -7.62939e-007
    endloop
  endfacet
  facet normal 1 -0 0
    outer loop
      vertex 3 20.3 0
      vertex 3 28.75 -7.62939e-007
      vertex 3 40 0
    endloop
  endfacet
  facet normal 1 0 0
    outer loop
      vertex 3 20.3 0
      vertex 3 28.75 -2.5
      vertex 3 28.75 -7.62939e-007
    endloop
  endfacet
  facet normal 1 0 0
    outer loop
      vertex 3 28.75 -2.5
      vertex 3 20.3 0
      vertex 3 20.3 -2.5
    endloop
  endfacet
  facet normal 1 0 0
    outer loop
      vertex 3 40 -2.5
      vertex 3 37.75 -7.62939e-007
      vertex 3 37.75 -2.5
    endloop
  endfacet
  facet normal 1 0 0
    outer loop
      vertex 3 0 40
      vertex 3 -7.62939e-007 37.75
      vertex 3 0 20.3
    endloop
  endfacet
  facet normal 1 -0 0
    outer loop
      vertex 3 -2.5 40
      vertex 3 -7.62939e-007 37.75
      vertex 3 0 40
    endloop
  endfacet
  facet normal 1 0 0
    outer loop
      vertex 3 -7.62939e-007 37.75
      vertex 3 -2.5 40
      vertex 3 -2.5 37.75
    endloop
  endfacet
  facet normal 1 -0 0
    outer loop
      vertex 3 -7.62939e-007 28.75
      vertex 3 0 20.3
      vertex 3 -7.62939e-007 37.75
    endloop
  endfacet
  facet normal 1 -0 0
    outer loop
      vertex 3 -2.5 28.75
      vertex 3 0 20.3
      vertex 3 -7.62939e-007 28.75
    endloop
  endfacet
  facet normal 1 0 0
    outer loop
      vertex 3 0 20.3
      vertex 3 -2.5 28.75
      vertex 3 -2.5 20.3
    endloop
  endfacet
  facet normal 0 -1 0
    outer loop
      vertex -2.5 -3 37.75
      vertex 2.5 -3 40
      vertex -2.5 -3 40
    endloop
  endfacet
  facet normal 0 -1 -0
    outer loop
      vertex 2.5 -3 40
      vertex -2.5 -3 37.75
      vertex 2.5 -3 37.75
    endloop
  endfacet
  facet normal 0 -1 0
    outer loop
      vertex -2.5 -3 20.3
      vertex 2.5 -3 28.75
      vertex -2.5 -3 28.75
    endloop
  endfacet
  facet normal 0 -1 -0
    outer loop
      vertex 2.5 -3 28.75
      vertex -2.5 -3 20.3
      vertex 2.5 -3 20.3
    endloop
  endfacet
  facet normal 0 -1 0
    outer loop
      vertex 3 0 20.3
      vertex 10 0 40
      vertex 3 0 40
    endloop
  endfacet
  facet normal 0 -1 -0
    outer loop
      vertex 10 0 40
      vertex 3 0 20.3
      vertex 10 0 20.3
    endloop
  endfacet
  facet normal 0 -1 0
    outer loop
      vertex -10 0 20.3
      vertex -3 0 40
      vertex -10 0 40
    endloop
  endfacet
  facet normal 0 -1 -0
    outer loop
      vertex -3 0 40
      vertex -10 0 20.3
      vertex -3 0 20.3
    endloop
  endfacet
  facet normal 0 1 0
    outer loop
      vertex 2.5 40 -3
      vertex 3 40 0
      vertex 3 40 -2.5
    endloop
  endfacet
  facet normal 0 1 0
    outer loop
      vertex 3 40 0
      vertex 2.5 40 -3
      vertex -3 40 0
    endloop
  endfacet
  facet normal 0 1 -0
    outer loop
      vertex -2.5 40 -3
      vertex -3 40 0
      vertex 2.5 40 -3
    endloop
  endfacet
  facet normal 0 1 0
    outer loop
      vertex -3 40 0
      vertex -2.5 40 -3
      vertex -3 40 -2.5
    endloop
  endfacet
  facet normal 0 1 0
    outer loop
      vertex 3 40 0
      vertex 10 40 2.4
      vertex 10 40 0
    endloop
  endfacet
  facet normal 0 1 0
    outer loop
      vertex 10 40 2.4
      vertex 3 40 0
      vertex -10 40 2.4
    endloop
  endfacet
  facet normal 0 1 -0
    outer loop
      vertex -3 40 0
      vertex -10 40 2.4
      vertex 3 40 0
    endloop
  endfacet
  facet normal 0 1 0
    outer loop
      vertex -10 40 2.4
      vertex -3 40 0
      vertex -10 40 0
    endloop
  endfacet
  facet normal -1 2.82152e-008 0
    outer loop
      vertex -3 28.75 -2.5
      vertex -3 20.3 -2.5
      vertex -3 28.75 -7.62939e-007
    endloop
  endfacet
  facet normal -1 0 0
    outer loop
      vertex -3 37.75 -2.5
      vertex -3 40 0
      vertex -3 40 -2.5
    endloop
  endfacet
  facet normal -1 0 0
    outer loop
      vertex -3 37.75 -7.62939e-007
      vertex -3 40 0
      vertex -3 37.75 -2.5
    endloop
  endfacet
  facet normal -0.996962 2.64105e-008 -0.0778877
    outer loop
      vertex -3 28.75 -7.62939e-007
      vertex -3 40 0
      vertex -3 37.75 -7.62939e-007
    endloop
  endfacet
  facet normal -0.999015 2.41811e-008 -0.0443723
    outer loop
      vertex -3 28.75 -7.62939e-007
      vertex -3 20.3 0
      vertex -3 40 0
    endloop
  endfacet
  facet normal -1 2.82152e-008 0
    outer loop
      vertex -3 20.3 0
      vertex -3 28.75 -7.62939e-007
      vertex -3 20.3 -2.5
    endloop
  endfacet
  facet normal 0 0 -1
    outer loop
      vertex -2.5 37.75 -3
      vertex 2.5 40 -3
      vertex 2.5 37.75 -3
    endloop
  endfacet
  facet normal -0 0 -1
    outer loop
      vertex 2.5 40 -3
      vertex -2.5 37.75 -3
      vertex -2.5 40 -3
    endloop
  endfacet
  facet normal 0 2.82152e-008 -1
    outer loop
      vertex -2.5 20.3 -3
      vertex 2.5 28.75 -3
      vertex 2.5 20.3 -3
    endloop
  endfacet
  facet normal 0 2.82152e-008 -1
    outer loop
      vertex 2.5 28.75 -3
      vertex -2.5 20.3 -3
      vertex -2.5 28.75 -3
    endloop
  endfacet
  facet normal 0 0 -1
    outer loop
      vertex -10 20.3 0
      vertex -3 40 0
      vertex -3 20.3 0
    endloop
  endfacet
  facet normal -0 0 -1
    outer loop
      vertex -3 40 0
      vertex -10 20.3 0
      vertex -10 40 0
    endloop
  endfacet
  facet normal 0 0 -1
    outer loop
      vertex 3 20.3 0
      vertex 10 40 0
      vertex 10 20.3 0
    endloop
  endfacet
  facet normal -0 0 -1
    outer loop
      vertex 10 40 0
      vertex 3 20.3 0
      vertex 3 40 0
    endloop
  endfacet
  facet normal -0.995185 -0.0980181 0
    outer loop
      vertex 2.9 33.25 -7.62939e-007
      vertex 2.84428 33.8158 4
      vertex 2.84428 33.8158 -7.62939e-007
    endloop
  endfacet
  facet normal -0.995185 -0.0980181 0
    outer loop
      vertex 2.84428 33.8158 4
      vertex 2.9 33.25 -7.62939e-007
      vertex 2.9 33.25 4
    endloop
  endfacet
  facet normal 0.995185 -0.0980181 0
    outer loop
      vertex -2.9 33.25 4
      vertex -2.84428 33.8158 -7.62939e-007
      vertex -2.84428 33.8158 4
    endloop
  endfacet
  facet normal 0.995185 -0.0980181 0
    outer loop
      vertex -2.84428 33.8158 -7.62939e-007
      vertex -2.9 33.25 4
      vertex -2.9 33.25 -7.62939e-007
    endloop
  endfacet
  facet normal -0.0980214 -0.995184 0
    outer loop
      vertex 0 36.15 -7.62939e-007
      vertex 0.565762 36.0943 4
      vertex 0 36.15 4
    endloop
  endfacet
  facet normal -0.0980214 -0.995184 -0
    outer loop
      vertex 0.565762 36.0943 4
      vertex 0 36.15 -7.62939e-007
      vertex 0.565762 36.0943 -7.62939e-007
    endloop
  endfacet
  facet normal -0.773011 -0.634392 0
    outer loop
      vertex 2.41126 34.8612 -7.62939e-007
      vertex 2.05061 35.3006 4
      vertex 2.05061 35.3006 -7.62939e-007
    endloop
  endfacet
  facet normal -0.773011 -0.634392 0
    outer loop
      vertex 2.05061 35.3006 4
      vertex 2.41126 34.8612 -7.62939e-007
      vertex 2.41126 34.8612 4
    endloop
  endfacet
  facet normal 0.634394 -0.77301 0
    outer loop
      vertex -2.05061 35.3006 -7.62939e-007
      vertex -1.61115 35.6613 4
      vertex -2.05061 35.3006 4
    endloop
  endfacet
  facet normal 0.634394 -0.77301 0
    outer loop
      vertex -1.61115 35.6613 4
      vertex -2.05061 35.3006 -7.62939e-007
      vertex -1.61115 35.6613 -7.62939e-007
    endloop
  endfacet
  facet normal 0.290286 -0.95694 0
    outer loop
      vertex -1.10978 35.9292 -7.62939e-007
      vertex -0.565762 36.0943 4
      vertex -1.10978 35.9292 4
    endloop
  endfacet
  facet normal 0.290286 -0.95694 0
    outer loop
      vertex -0.565762 36.0943 4
      vertex -1.10978 35.9292 -7.62939e-007
      vertex -0.565762 36.0943 -7.62939e-007
    endloop
  endfacet
  facet normal -0.634394 0.77301 0
    outer loop
      vertex 2.05061 31.1994 -7.62939e-007
      vertex 1.61115 30.8387 4
      vertex 2.05061 31.1994 4
    endloop
  endfacet
  facet normal -0.634394 0.77301 0
    outer loop
      vertex 1.61115 30.8387 4
      vertex 2.05061 31.1994 -7.62939e-007
      vertex 1.61115 30.8387 -7.62939e-007
    endloop
  endfacet
  facet normal -0.881922 -0.471395 0
    outer loop
      vertex 2.67925 34.3598 -7.62939e-007
      vertex 2.41126 34.8612 4
      vertex 2.41126 34.8612 -7.62939e-007
    endloop
  endfacet
  facet normal -0.881922 -0.471395 0
    outer loop
      vertex 2.41126 34.8612 4
      vertex 2.67925 34.3598 -7.62939e-007
      vertex 2.67925 34.3598 4
    endloop
  endfacet
  facet normal -0.95694 -0.290286 0
    outer loop
      vertex 2.84428 33.8158 -7.62939e-007
      vertex 2.67925 34.3598 4
      vertex 2.67925 34.3598 -7.62939e-007
    endloop
  endfacet
  facet normal -0.95694 -0.290286 0
    outer loop
      vertex 2.67925 34.3598 4
      vertex 2.84428 33.8158 -7.62939e-007
      vertex 2.84428 33.8158 4
    endloop
  endfacet
  facet normal -0.471393 -0.881923 0
    outer loop
      vertex 1.10978 35.9292 -7.62939e-007
      vertex 1.61115 35.6613 4
      vertex 1.10978 35.9292 4
    endloop
  endfacet
  facet normal -0.471393 -0.881923 -0
    outer loop
      vertex 1.61115 35.6613 4
      vertex 1.10978 35.9292 -7.62939e-007
      vertex 1.61115 35.6613 -7.62939e-007
    endloop
  endfacet
  facet normal -0.290286 -0.95694 0
    outer loop
      vertex 0.565762 36.0943 -7.62939e-007
      vertex 1.10978 35.9292 4
      vertex 0.565762 36.0943 4
    endloop
  endfacet
  facet normal -0.290286 -0.95694 -0
    outer loop
      vertex 1.10978 35.9292 4
      vertex 0.565762 36.0943 -7.62939e-007
      vertex 1.10978 35.9292 -7.62939e-007
    endloop
  endfacet
  facet normal -0.634394 -0.77301 0
    outer loop
      vertex 1.61115 35.6613 -7.62939e-007
      vertex 2.05061 35.3006 4
      vertex 1.61115 35.6613 4
    endloop
  endfacet
  facet normal -0.634394 -0.77301 -0
    outer loop
      vertex 2.05061 35.3006 4
      vertex 1.61115 35.6613 -7.62939e-007
      vertex 2.05061 35.3006 -7.62939e-007
    endloop
  endfacet
  facet normal 0.881922 -0.471395 0
    outer loop
      vertex -2.67925 34.3598 4
      vertex -2.41126 34.8612 -7.62939e-007
      vertex -2.41126 34.8612 4
    endloop
  endfacet
  facet normal 0.881922 -0.471395 0
    outer loop
      vertex -2.41126 34.8612 -7.62939e-007
      vertex -2.67925 34.3598 4
      vertex -2.67925 34.3598 -7.62939e-007
    endloop
  endfacet
  facet normal 0.773011 -0.634392 0
    outer loop
      vertex -2.41126 34.8612 4
      vertex -2.05061 35.3006 -7.62939e-007
      vertex -2.05061 35.3006 4
    endloop
  endfacet
  facet normal 0.773011 -0.634392 0
    outer loop
      vertex -2.05061 35.3006 -7.62939e-007
      vertex -2.41126 34.8612 4
      vertex -2.41126 34.8612 -7.62939e-007
    endloop
  endfacet
  facet normal 0.95694 -0.290286 0
    outer loop
      vertex -2.84428 33.8158 4
      vertex -2.67925 34.3598 -7.62939e-007
      vertex -2.67925 34.3598 4
    endloop
  endfacet
  facet normal 0.95694 -0.290286 0
    outer loop
      vertex -2.67925 34.3598 -7.62939e-007
      vertex -2.84428 33.8158 4
      vertex -2.84428 33.8158 -7.62939e-007
    endloop
  endfacet
  facet normal 0.471393 -0.881923 0
    outer loop
      vertex -1.61115 35.6613 -7.62939e-007
      vertex -1.10978 35.9292 4
      vertex -1.61115 35.6613 4
    endloop
  endfacet
  facet normal 0.471393 -0.881923 0
    outer loop
      vertex -1.10978 35.9292 4
      vertex -1.61115 35.6613 -7.62939e-007
      vertex -1.10978 35.9292 -7.62939e-007
    endloop
  endfacet
  facet normal 0.0980214 -0.995184 0
    outer loop
      vertex -0.565762 36.0943 -7.62939e-007
      vertex 0 36.15 4
      vertex -0.565762 36.0943 4
    endloop
  endfacet
  facet normal 0.0980214 -0.995184 0
    outer loop
      vertex 0 36.15 4
      vertex -0.565762 36.0943 -7.62939e-007
      vertex 0 36.15 -7.62939e-007
    endloop
  endfacet
  facet normal -0.0980181 0.995185 0
    outer loop
      vertex 0.565762 30.4057 -7.62939e-007
      vertex 0 30.35 4
      vertex 0.565762 30.4057 4
    endloop
  endfacet
  facet normal -0.0980181 0.995185 0
    outer loop
      vertex 0 30.35 4
      vertex 0.565762 30.4057 -7.62939e-007
      vertex 0 30.35 -7.62939e-007
    endloop
  endfacet
  facet normal -0.471393 0.881923 0
    outer loop
      vertex 1.61115 30.8387 -7.62939e-007
      vertex 1.10978 30.5708 4
      vertex 1.61115 30.8387 4
    endloop
  endfacet
  facet normal -0.471393 0.881923 0
    outer loop
      vertex 1.10978 30.5708 4
      vertex 1.61115 30.8387 -7.62939e-007
      vertex 1.10978 30.5708 -7.62939e-007
    endloop
  endfacet
  facet normal 0.634394 0.77301 -0
    outer loop
      vertex -1.61115 30.8387 -7.62939e-007
      vertex -2.05061 31.1994 4
      vertex -1.61115 30.8387 4
    endloop
  endfacet
  facet normal 0.634394 0.77301 0
    outer loop
      vertex -2.05061 31.1994 4
      vertex -1.61115 30.8387 -7.62939e-007
      vertex -2.05061 31.1994 -7.62939e-007
    endloop
  endfacet
  facet normal 0.290286 0.95694 -0
    outer loop
      vertex -0.565762 30.4057 -7.62939e-007
      vertex -1.10978 30.5708 4
      vertex -0.565762 30.4057 4
    endloop
  endfacet
  facet normal 0.290286 0.95694 0
    outer loop
      vertex -1.10978 30.5708 4
      vertex -0.565762 30.4057 -7.62939e-007
      vertex -1.10978 30.5708 -7.62939e-007
    endloop
  endfacet
  facet normal 0.881922 0.471395 0
    outer loop
      vertex -2.41126 31.6388 4
      vertex -2.67925 32.1402 -7.62939e-007
      vertex -2.67925 32.1402 4
    endloop
  endfacet
  facet normal 0.881922 0.471395 0
    outer loop
      vertex -2.67925 32.1402 -7.62939e-007
      vertex -2.41126 31.6388 4
      vertex -2.41126 31.6388 -7.62939e-007
    endloop
  endfacet
  facet normal 0.995185 0.0980181 0
    outer loop
      vertex -2.84428 32.6842 4
      vertex -2.9 33.25 -7.62939e-007
      vertex -2.9 33.25 4
    endloop
  endfacet
  facet normal 0.995185 0.0980181 0
    outer loop
      vertex -2.9 33.25 -7.62939e-007
      vertex -2.84428 32.6842 4
      vertex -2.84428 32.6842 -7.62939e-007
    endloop
  endfacet
  facet normal -0.290286 0.95694 0
    outer loop
      vertex 1.10978 30.5708 -7.62939e-007
      vertex 0.565762 30.4057 4
      vertex 1.10978 30.5708 4
    endloop
  endfacet
  facet normal -0.290286 0.95694 0
    outer loop
      vertex 0.565762 30.4057 4
      vertex 1.10978 30.5708 -7.62939e-007
      vertex 0.565762 30.4057 -7.62939e-007
    endloop
  endfacet
  facet normal -0.773011 0.634392 0
    outer loop
      vertex 2.05061 31.1994 -7.62939e-007
      vertex 2.41126 31.6388 4
      vertex 2.41126 31.6388 -7.62939e-007
    endloop
  endfacet
  facet normal -0.773011 0.634392 0
    outer loop
      vertex 2.41126 31.6388 4
      vertex 2.05061 31.1994 -7.62939e-007
      vertex 2.05061 31.1994 4
    endloop
  endfacet
  facet normal -0.995185 0.0980181 0
    outer loop
      vertex 2.84428 32.6842 -7.62939e-007
      vertex 2.9 33.25 4
      vertex 2.9 33.25 -7.62939e-007
    endloop
  endfacet
  facet normal -0.995185 0.0980181 0
    outer loop
      vertex 2.9 33.25 4
      vertex 2.84428 32.6842 -7.62939e-007
      vertex 2.84428 32.6842 4
    endloop
  endfacet
  facet normal 0.471393 0.881923 -0
    outer loop
      vertex -1.10978 30.5708 -7.62939e-007
      vertex -1.61115 30.8387 4
      vertex -1.10978 30.5708 4
    endloop
  endfacet
  facet normal 0.471393 0.881923 0
    outer loop
      vertex -1.61115 30.8387 4
      vertex -1.10978 30.5708 -7.62939e-007
      vertex -1.61115 30.8387 -7.62939e-007
    endloop
  endfacet
  facet normal 0.0980181 0.995185 -0
    outer loop
      vertex 0 30.35 -7.62939e-007
      vertex -0.565762 30.4057 4
      vertex 0 30.35 4
    endloop
  endfacet
  facet normal 0.0980181 0.995185 0
    outer loop
      vertex -0.565762 30.4057 4
      vertex 0 30.35 -7.62939e-007
      vertex -0.565762 30.4057 -7.62939e-007
    endloop
  endfacet
  facet normal 0.773011 0.634392 0
    outer loop
      vertex -2.05061 31.1994 4
      vertex -2.41126 31.6388 -7.62939e-007
      vertex -2.41126 31.6388 4
    endloop
  endfacet
  facet normal 0.773011 0.634392 0
    outer loop
      vertex -2.41126 31.6388 -7.62939e-007
      vertex -2.05061 31.1994 4
      vertex -2.05061 31.1994 -7.62939e-007
    endloop
  endfacet
  facet normal 0.95694 0.290286 0
    outer loop
      vertex -2.67925 32.1402 4
      vertex -2.84428 32.6842 -7.62939e-007
      vertex -2.84428 32.6842 4
    endloop
  endfacet
  facet normal 0.95694 0.290286 0
    outer loop
      vertex -2.84428 32.6842 -7.62939e-007
      vertex -2.67925 32.1402 4
      vertex -2.67925 32.1402 -7.62939e-007
    endloop
  endfacet
  facet normal -0.881922 0.471395 0
    outer loop
      vertex 2.41126 31.6388 -7.62939e-007
      vertex 2.67925 32.1402 4
      vertex 2.67925 32.1402 -7.62939e-007
    endloop
  endfacet
  facet normal -0.881922 0.471395 0
    outer loop
      vertex 2.67925 32.1402 4
      vertex 2.41126 31.6388 -7.62939e-007
      vertex 2.41126 31.6388 4
    endloop
  endfacet
  facet normal -0.95694 0.290286 0
    outer loop
      vertex 2.67925 32.1402 -7.62939e-007
      vertex 2.84428 32.6842 4
      vertex 2.84428 32.6842 -7.62939e-007
    endloop
  endfacet
  facet normal -0.95694 0.290286 0
    outer loop
      vertex 2.84428 32.6842 4
      vertex 2.67925 32.1402 -7.62939e-007
      vertex 2.67925 32.1402 4
    endloop
  endfacet
  facet normal 0 0 -1
    outer loop
      vertex 3 28.75 -7.62939e-007
      vertex 2.9 33.25 -7.62939e-007
      vertex 3 37.75 -7.62939e-007
    endloop
  endfacet
  facet normal 0 0 -1
    outer loop
      vertex 3 28.75 -7.62939e-007
      vertex 2.84428 32.6842 -7.62939e-007
      vertex 2.9 33.25 -7.62939e-007
    endloop
  endfacet
  facet normal 0 0 -1
    outer loop
      vertex 3 28.75 -7.62939e-007
      vertex 2.67925 32.1402 -7.62939e-007
      vertex 2.84428 32.6842 -7.62939e-007
    endloop
  endfacet
  facet normal 0 0 -1
    outer loop
      vertex 3 28.75 -7.62939e-007
      vertex 2.41126 31.6388 -7.62939e-007
      vertex 2.67925 32.1402 -7.62939e-007
    endloop
  endfacet
  facet normal 0 0 -1
    outer loop
      vertex 3 28.75 -7.62939e-007
      vertex 2.05061 31.1994 -7.62939e-007
      vertex 2.41126 31.6388 -7.62939e-007
    endloop
  endfacet
  facet normal 0 0 -1
    outer loop
      vertex 3 28.75 -7.62939e-007
      vertex 1.61115 30.8387 -7.62939e-007
      vertex 2.05061 31.1994 -7.62939e-007
    endloop
  endfacet
  facet normal 0 0 -1
    outer loop
      vertex 3 28.75 -7.62939e-007
      vertex 1.10978 30.5708 -7.62939e-007
      vertex 1.61115 30.8387 -7.62939e-007
    endloop
  endfacet
  facet normal 0 0 -1
    outer loop
      vertex 3 28.75 -7.62939e-007
      vertex 0.565762 30.4057 -7.62939e-007
      vertex 1.10978 30.5708 -7.62939e-007
    endloop
  endfacet
  facet normal 0 0 -1
    outer loop
      vertex 3 28.75 -7.62939e-007
      vertex 0 30.35 -7.62939e-007
      vertex 0.565762 30.4057 -7.62939e-007
    endloop
  endfacet
  facet normal 0 0 -1
    outer loop
      vertex -3 28.75 -7.62939e-007
      vertex 0 30.35 -7.62939e-007
      vertex 3 28.75 -7.62939e-007
    endloop
  endfacet
  facet normal -0 0 -1
    outer loop
      vertex 0 30.35 -7.62939e-007
      vertex -3 28.75 -7.62939e-007
      vertex -0.565762 30.4057 -7.62939e-007
    endloop
  endfacet
  facet normal -0 0 -1
    outer loop
      vertex -2.9 33.25 -7.62939e-007
      vertex -3 28.75 -7.62939e-007
      vertex -3 37.75 -7.62939e-007
    endloop
  endfacet
  facet normal -0 0 -1
    outer loop
      vertex -2.84428 32.6842 -7.62939e-007
      vertex -3 28.75 -7.62939e-007
      vertex -2.9 33.25 -7.62939e-007
    endloop
  endfacet
  facet normal -0 0 -1
    outer loop
      vertex -2.67925 32.1402 -7.62939e-007
      vertex -3 28.75 -7.62939e-007
      vertex -2.84428 32.6842 -7.62939e-007
    endloop
  endfacet
  facet normal -0 0 -1
    outer loop
      vertex -2.41126 31.6388 -7.62939e-007
      vertex -3 28.75 -7.62939e-007
      vertex -2.67925 32.1402 -7.62939e-007
    endloop
  endfacet
  facet normal -0 0 -1
    outer loop
      vertex -2.05061 31.1994 -7.62939e-007
      vertex -3 28.75 -7.62939e-007
      vertex -2.41126 31.6388 -7.62939e-007
    endloop
  endfacet
  facet normal -0 0 -1
    outer loop
      vertex -1.61115 30.8387 -7.62939e-007
      vertex -3 28.75 -7.62939e-007
      vertex -2.05061 31.1994 -7.62939e-007
    endloop
  endfacet
  facet normal -0 0 -1
    outer loop
      vertex -1.10978 30.5708 -7.62939e-007
      vertex -3 28.75 -7.62939e-007
      vertex -1.61115 30.8387 -7.62939e-007
    endloop
  endfacet
  facet normal -0 0 -1
    outer loop
      vertex -0.565762 30.4057 -7.62939e-007
      vertex -3 28.75 -7.62939e-007
      vertex -1.10978 30.5708 -7.62939e-007
    endloop
  endfacet
  facet normal 0 0 -1
    outer loop
      vertex 2.84428 33.8158 -7.62939e-007
      vertex 3 37.75 -7.62939e-007
      vertex 2.9 33.25 -7.62939e-007
    endloop
  endfacet
  facet normal 0 0 -1
    outer loop
      vertex 2.67925 34.3598 -7.62939e-007
      vertex 3 37.75 -7.62939e-007
      vertex 2.84428 33.8158 -7.62939e-007
    endloop
  endfacet
  facet normal 0 0 -1
    outer loop
      vertex 2.41126 34.8612 -7.62939e-007
      vertex 3 37.75 -7.62939e-007
      vertex 2.67925 34.3598 -7.62939e-007
    endloop
  endfacet
  facet normal 0 0 -1
    outer loop
      vertex 2.05061 35.3006 -7.62939e-007
      vertex 3 37.75 -7.62939e-007
      vertex 2.41126 34.8612 -7.62939e-007
    endloop
  endfacet
  facet normal 0 0 -1
    outer loop
      vertex 1.61115 35.6613 -7.62939e-007
      vertex 3 37.75 -7.62939e-007
      vertex 2.05061 35.3006 -7.62939e-007
    endloop
  endfacet
  facet normal 0 0 -1
    outer loop
      vertex 1.10978 35.9292 -7.62939e-007
      vertex 3 37.75 -7.62939e-007
      vertex 1.61115 35.6613 -7.62939e-007
    endloop
  endfacet
  facet normal 0 0 -1
    outer loop
      vertex 0.565762 36.0943 -7.62939e-007
      vertex 3 37.75 -7.62939e-007
      vertex 1.10978 35.9292 -7.62939e-007
    endloop
  endfacet
  facet normal 0 0 -1
    outer loop
      vertex 0 36.15 -7.62939e-007
      vertex 3 37.75 -7.62939e-007
      vertex 0.565762 36.0943 -7.62939e-007
    endloop
  endfacet
  facet normal 0 0 -1
    outer loop
      vertex -3 37.75 -7.62939e-007
      vertex 0 36.15 -7.62939e-007
      vertex -0.565762 36.0943 -7.62939e-007
    endloop
  endfacet
  facet normal 0 0 -1
    outer loop
      vertex -3 37.75 -7.62939e-007
      vertex -0.565762 36.0943 -7.62939e-007
      vertex -1.10978 35.9292 -7.62939e-007
    endloop
  endfacet
  facet normal 0 0 -1
    outer loop
      vertex 0 36.15 -7.62939e-007
      vertex -3 37.75 -7.62939e-007
      vertex 3 37.75 -7.62939e-007
    endloop
  endfacet
  facet normal 0 0 -1
    outer loop
      vertex -1.61115 35.6613 -7.62939e-007
      vertex -3 37.75 -7.62939e-007
      vertex -1.10978 35.9292 -7.62939e-007
    endloop
  endfacet
  facet normal 0 0 -1
    outer loop
      vertex -2.05061 35.3006 -7.62939e-007
      vertex -3 37.75 -7.62939e-007
      vertex -1.61115 35.6613 -7.62939e-007
    endloop
  endfacet
  facet normal 0 0 -1
    outer loop
      vertex -2.41126 34.8612 -7.62939e-007
      vertex -3 37.75 -7.62939e-007
      vertex -2.05061 35.3006 -7.62939e-007
    endloop
  endfacet
  facet normal 0 0 -1
    outer loop
      vertex -2.67925 34.3598 -7.62939e-007
      vertex -3 37.75 -7.62939e-007
      vertex -2.41126 34.8612 -7.62939e-007
    endloop
  endfacet
  facet normal 0 0 -1
    outer loop
      vertex -2.84428 33.8158 -7.62939e-007
      vertex -3 37.75 -7.62939e-007
      vertex -2.67925 34.3598 -7.62939e-007
    endloop
  endfacet
  facet normal 0 0 -1
    outer loop
      vertex -3 37.75 -7.62939e-007
      vertex -2.84428 33.8158 -7.62939e-007
      vertex -2.9 33.25 -7.62939e-007
    endloop
  endfacet
  facet normal 0 -1 0
    outer loop
      vertex 2.5 37.75 -3
      vertex 3 37.75 -7.62939e-007
      vertex -3 37.75 -7.62939e-007
    endloop
  endfacet
  facet normal 0 -1 0
    outer loop
      vertex -2.5 37.75 -3
      vertex -3 37.75 -7.62939e-007
      vertex -3 37.75 -2.5
    endloop
  endfacet
  facet normal 0 -1 0
    outer loop
      vertex 2.5 37.75 -3
      vertex -3 37.75 -7.62939e-007
      vertex -2.5 37.75 -3
    endloop
  endfacet
  facet normal 0 -1 -0
    outer loop
      vertex 3 37.75 -7.62939e-007
      vertex 2.5 37.75 -3
      vertex 3 37.75 -2.5
    endloop
  endfacet
  facet normal 0 1 0
    outer loop
      vertex 2.5 28.75 -3
      vertex 3 28.75 -7.62939e-007
      vertex 3 28.75 -2.5
    endloop
  endfacet
  facet normal 0 1 0
    outer loop
      vertex 3 28.75 -7.62939e-007
      vertex 2.5 28.75 -3
      vertex -3 28.75 -7.62939e-007
    endloop
  endfacet
  facet normal 0 1 -0
    outer loop
      vertex -2.5 28.75 -3
      vertex -3 28.75 -7.62939e-007
      vertex 2.5 28.75 -3
    endloop
  endfacet
  facet normal 0 1 0
    outer loop
      vertex -3 28.75 -7.62939e-007
      vertex -2.5 28.75 -3
      vertex -3 28.75 -2.5
    endloop
  endfacet
  facet normal -0.995185 0 0.0980181
    outer loop
      vertex 2.84428 -7.62939e-007 32.6842
      vertex 2.9 4 33.25
      vertex 2.84428 4 32.6842
    endloop
  endfacet
  facet normal -0.995185 0 0.0980181
    outer loop
      vertex 2.9 4 33.25
      vertex 2.84428 -7.62939e-007 32.6842
      vertex 2.9 -7.62939e-007 33.25
    endloop
  endfacet
  facet normal 0.995185 -0 0.0980181
    outer loop
      vertex -2.9 -7.62939e-007 33.25
      vertex -2.84428 4 32.6842
      vertex -2.9 4 33.25
    endloop
  endfacet
  facet normal 0.995185 0 0.0980181
    outer loop
      vertex -2.84428 4 32.6842
      vertex -2.9 -7.62939e-007 33.25
      vertex -2.84428 -7.62939e-007 32.6842
    endloop
  endfacet
  facet normal -0.0980181 0 0.995185
    outer loop
      vertex 0 4 30.35
      vertex 0.565762 -7.62939e-007 30.4057
      vertex 0.565762 4 30.4057
    endloop
  endfacet
  facet normal -0.0980181 0 0.995185
    outer loop
      vertex 0.565762 -7.62939e-007 30.4057
      vertex 0 4 30.35
      vertex 0 -7.62939e-007 30.35
    endloop
  endfacet
  facet normal -0.77301 0 0.634394
    outer loop
      vertex 2.05061 -7.62939e-007 31.1994
      vertex 2.41126 4 31.6388
      vertex 2.05061 4 31.1994
    endloop
  endfacet
  facet normal -0.77301 0 0.634394
    outer loop
      vertex 2.41126 4 31.6388
      vertex 2.05061 -7.62939e-007 31.1994
      vertex 2.41126 -7.62939e-007 31.6388
    endloop
  endfacet
  facet normal 0.634394 0 0.77301
    outer loop
      vertex -2.05061 4 31.1994
      vertex -1.61115 -7.62939e-007 30.8387
      vertex -1.61115 4 30.8387
    endloop
  endfacet
  facet normal 0.634394 0 0.77301
    outer loop
      vertex -1.61115 -7.62939e-007 30.8387
      vertex -2.05061 4 31.1994
      vertex -2.05061 -7.62939e-007 31.1994
    endloop
  endfacet
  facet normal 0.290283 0 0.956941
    outer loop
      vertex -1.10978 4 30.5707
      vertex -0.565762 -7.62939e-007 30.4057
      vertex -0.565762 4 30.4057
    endloop
  endfacet
  facet normal 0.290283 0 0.956941
    outer loop
      vertex -0.565762 -7.62939e-007 30.4057
      vertex -1.10978 4 30.5707
      vertex -1.10978 -7.62939e-007 30.5707
    endloop
  endfacet
  facet normal -0.634394 0 -0.77301
    outer loop
      vertex 1.61115 -7.62939e-007 35.6613
      vertex 2.05061 4 35.3006
      vertex 2.05061 -7.62939e-007 35.3006
    endloop
  endfacet
  facet normal -0.634394 0 -0.77301
    outer loop
      vertex 2.05061 4 35.3006
      vertex 1.61115 -7.62939e-007 35.6613
      vertex 1.61115 4 35.6613
    endloop
  endfacet
  facet normal -0.881922 0 0.471396
    outer loop
      vertex 2.41126 -7.62939e-007 31.6388
      vertex 2.67925 4 32.1402
      vertex 2.41126 4 31.6388
    endloop
  endfacet
  facet normal -0.881922 0 0.471396
    outer loop
      vertex 2.67925 4 32.1402
      vertex 2.41126 -7.62939e-007 31.6388
      vertex 2.67925 -7.62939e-007 32.1402
    endloop
  endfacet
  facet normal -0.956941 0 0.290284
    outer loop
      vertex 2.67925 -7.62939e-007 32.1402
      vertex 2.84428 4 32.6842
      vertex 2.67925 4 32.1402
    endloop
  endfacet
  facet normal -0.956941 0 0.290284
    outer loop
      vertex 2.84428 4 32.6842
      vertex 2.67925 -7.62939e-007 32.1402
      vertex 2.84428 -7.62939e-007 32.6842
    endloop
  endfacet
  facet normal -0.471396 0 0.881922
    outer loop
      vertex 1.10978 4 30.5707
      vertex 1.61115 -7.62939e-007 30.8387
      vertex 1.61115 4 30.8387
    endloop
  endfacet
  facet normal -0.471396 0 0.881922
    outer loop
      vertex 1.61115 -7.62939e-007 30.8387
      vertex 1.10978 4 30.5707
      vertex 1.10978 -7.62939e-007 30.5707
    endloop
  endfacet
  facet normal -0.290283 0 0.956941
    outer loop
      vertex 0.565762 4 30.4057
      vertex 1.10978 -7.62939e-007 30.5707
      vertex 1.10978 4 30.5707
    endloop
  endfacet
  facet normal -0.290283 0 0.956941
    outer loop
      vertex 1.10978 -7.62939e-007 30.5707
      vertex 0.565762 4 30.4057
      vertex 0.565762 -7.62939e-007 30.4057
    endloop
  endfacet
  facet normal -0.634394 0 0.77301
    outer loop
      vertex 1.61115 4 30.8387
      vertex 2.05061 -7.62939e-007 31.1994
      vertex 2.05061 4 31.1994
    endloop
  endfacet
  facet normal -0.634394 0 0.77301
    outer loop
      vertex 2.05061 -7.62939e-007 31.1994
      vertex 1.61115 4 30.8387
      vertex 1.61115 -7.62939e-007 30.8387
    endloop
  endfacet
  facet normal 0.881922 -0 0.471396
    outer loop
      vertex -2.67925 -7.62939e-007 32.1402
      vertex -2.41126 4 31.6388
      vertex -2.67925 4 32.1402
    endloop
  endfacet
  facet normal 0.881922 0 0.471396
    outer loop
      vertex -2.41126 4 31.6388
      vertex -2.67925 -7.62939e-007 32.1402
      vertex -2.41126 -7.62939e-007 31.6388
    endloop
  endfacet
  facet normal 0.77301 -0 0.634394
    outer loop
      vertex -2.41126 -7.62939e-007 31.6388
      vertex -2.05061 4 31.1994
      vertex -2.41126 4 31.6388
    endloop
  endfacet
  facet normal 0.77301 0 0.634394
    outer loop
      vertex -2.05061 4 31.1994
      vertex -2.41126 -7.62939e-007 31.6388
      vertex -2.05061 -7.62939e-007 31.1994
    endloop
  endfacet
  facet normal 0.956941 -0 0.290284
    outer loop
      vertex -2.84428 -7.62939e-007 32.6842
      vertex -2.67925 4 32.1402
      vertex -2.84428 4 32.6842
    endloop
  endfacet
  facet normal 0.956941 0 0.290284
    outer loop
      vertex -2.67925 4 32.1402
      vertex -2.84428 -7.62939e-007 32.6842
      vertex -2.67925 -7.62939e-007 32.1402
    endloop
  endfacet
  facet normal 0.471396 0 0.881922
    outer loop
      vertex -1.61115 4 30.8387
      vertex -1.10978 -7.62939e-007 30.5707
      vertex -1.10978 4 30.5707
    endloop
  endfacet
  facet normal 0.471396 0 0.881922
    outer loop
      vertex -1.10978 -7.62939e-007 30.5707
      vertex -1.61115 4 30.8387
      vertex -1.61115 -7.62939e-007 30.8387
    endloop
  endfacet
  facet normal 0.0980181 0 0.995185
    outer loop
      vertex -0.565762 4 30.4057
      vertex 0 -7.62939e-007 30.35
      vertex 0 4 30.35
    endloop
  endfacet
  facet normal 0.0980181 0 0.995185
    outer loop
      vertex 0 -7.62939e-007 30.35
      vertex -0.565762 4 30.4057
      vertex -0.565762 -7.62939e-007 30.4057
    endloop
  endfacet
  facet normal -0.0980148 0 -0.995185
    outer loop
      vertex 0 -7.62939e-007 36.15
      vertex 0.565762 4 36.0943
      vertex 0.565762 -7.62939e-007 36.0943
    endloop
  endfacet
  facet normal -0.0980148 0 -0.995185
    outer loop
      vertex 0.565762 4 36.0943
      vertex 0 -7.62939e-007 36.15
      vertex 0 4 36.15
    endloop
  endfacet
  facet normal -0.471393 0 -0.881923
    outer loop
      vertex 1.10978 -7.62939e-007 35.9292
      vertex 1.61115 4 35.6613
      vertex 1.61115 -7.62939e-007 35.6613
    endloop
  endfacet
  facet normal -0.471393 0 -0.881923
    outer loop
      vertex 1.61115 4 35.6613
      vertex 1.10978 -7.62939e-007 35.9292
      vertex 1.10978 4 35.9292
    endloop
  endfacet
  facet normal 0.634394 0 -0.77301
    outer loop
      vertex -2.05061 -7.62939e-007 35.3006
      vertex -1.61115 4 35.6613
      vertex -1.61115 -7.62939e-007 35.6613
    endloop
  endfacet
  facet normal 0.634394 0 -0.77301
    outer loop
      vertex -1.61115 4 35.6613
      vertex -2.05061 -7.62939e-007 35.3006
      vertex -2.05061 4 35.3006
    endloop
  endfacet
  facet normal 0.290286 0 -0.95694
    outer loop
      vertex -1.10978 -7.62939e-007 35.9292
      vertex -0.565762 4 36.0943
      vertex -0.565762 -7.62939e-007 36.0943
    endloop
  endfacet
  facet normal 0.290286 0 -0.95694
    outer loop
      vertex -0.565762 4 36.0943
      vertex -1.10978 -7.62939e-007 35.9292
      vertex -1.10978 4 35.9292
    endloop
  endfacet
  facet normal 0.881922 0 -0.471395
    outer loop
      vertex -2.41126 -7.62939e-007 34.8612
      vertex -2.67925 4 34.3598
      vertex -2.41126 4 34.8612
    endloop
  endfacet
  facet normal 0.881922 0 -0.471395
    outer loop
      vertex -2.67925 4 34.3598
      vertex -2.41126 -7.62939e-007 34.8612
      vertex -2.67925 -7.62939e-007 34.3598
    endloop
  endfacet
  facet normal 0.995185 0 -0.0980181
    outer loop
      vertex -2.84428 -7.62939e-007 33.8158
      vertex -2.9 4 33.25
      vertex -2.84428 4 33.8158
    endloop
  endfacet
  facet normal 0.995185 0 -0.0980181
    outer loop
      vertex -2.9 4 33.25
      vertex -2.84428 -7.62939e-007 33.8158
      vertex -2.9 -7.62939e-007 33.25
    endloop
  endfacet
  facet normal -0.290286 0 -0.95694
    outer loop
      vertex 0.565762 -7.62939e-007 36.0943
      vertex 1.10978 4 35.9292
      vertex 1.10978 -7.62939e-007 35.9292
    endloop
  endfacet
  facet normal -0.290286 0 -0.95694
    outer loop
      vertex 1.10978 4 35.9292
      vertex 0.565762 -7.62939e-007 36.0943
      vertex 0.565762 4 36.0943
    endloop
  endfacet
  facet normal -0.773011 0 -0.634392
    outer loop
      vertex 2.41126 -7.62939e-007 34.8612
      vertex 2.05061 4 35.3006
      vertex 2.41126 4 34.8612
    endloop
  endfacet
  facet normal -0.773011 -0 -0.634392
    outer loop
      vertex 2.05061 4 35.3006
      vertex 2.41126 -7.62939e-007 34.8612
      vertex 2.05061 -7.62939e-007 35.3006
    endloop
  endfacet
  facet normal -0.995185 0 -0.0980181
    outer loop
      vertex 2.9 -7.62939e-007 33.25
      vertex 2.84428 4 33.8158
      vertex 2.9 4 33.25
    endloop
  endfacet
  facet normal -0.995185 -0 -0.0980181
    outer loop
      vertex 2.84428 4 33.8158
      vertex 2.9 -7.62939e-007 33.25
      vertex 2.84428 -7.62939e-007 33.8158
    endloop
  endfacet
  facet normal 0.471393 0 -0.881923
    outer loop
      vertex -1.61115 -7.62939e-007 35.6613
      vertex -1.10978 4 35.9292
      vertex -1.10978 -7.62939e-007 35.9292
    endloop
  endfacet
  facet normal 0.471393 0 -0.881923
    outer loop
      vertex -1.10978 4 35.9292
      vertex -1.61115 -7.62939e-007 35.6613
      vertex -1.61115 4 35.6613
    endloop
  endfacet
  facet normal 0.0980148 0 -0.995185
    outer loop
      vertex -0.565762 -7.62939e-007 36.0943
      vertex 0 4 36.15
      vertex 0 -7.62939e-007 36.15
    endloop
  endfacet
  facet normal 0.0980148 0 -0.995185
    outer loop
      vertex 0 4 36.15
      vertex -0.565762 -7.62939e-007 36.0943
      vertex -0.565762 4 36.0943
    endloop
  endfacet
  facet normal 0.773011 0 -0.634392
    outer loop
      vertex -2.05061 -7.62939e-007 35.3006
      vertex -2.41126 4 34.8612
      vertex -2.05061 4 35.3006
    endloop
  endfacet
  facet normal 0.773011 0 -0.634392
    outer loop
      vertex -2.41126 4 34.8612
      vertex -2.05061 -7.62939e-007 35.3006
      vertex -2.41126 -7.62939e-007 34.8612
    endloop
  endfacet
  facet normal 0.95694 0 -0.290286
    outer loop
      vertex -2.67925 -7.62939e-007 34.3598
      vertex -2.84428 4 33.8158
      vertex -2.67925 4 34.3598
    endloop
  endfacet
  facet normal 0.95694 0 -0.290286
    outer loop
      vertex -2.84428 4 33.8158
      vertex -2.67925 -7.62939e-007 34.3598
      vertex -2.84428 -7.62939e-007 33.8158
    endloop
  endfacet
  facet normal -0.881922 0 -0.471395
    outer loop
      vertex 2.67925 -7.62939e-007 34.3598
      vertex 2.41126 4 34.8612
      vertex 2.67925 4 34.3598
    endloop
  endfacet
  facet normal -0.881922 -0 -0.471395
    outer loop
      vertex 2.41126 4 34.8612
      vertex 2.67925 -7.62939e-007 34.3598
      vertex 2.41126 -7.62939e-007 34.8612
    endloop
  endfacet
  facet normal -0.95694 0 -0.290286
    outer loop
      vertex 2.84428 -7.62939e-007 33.8158
      vertex 2.67925 4 34.3598
      vertex 2.84428 4 33.8158
    endloop
  endfacet
  facet normal -0.95694 -0 -0.290286
    outer loop
      vertex 2.67925 4 34.3598
      vertex 2.84428 -7.62939e-007 33.8158
      vertex 2.67925 -7.62939e-007 34.3598
    endloop
  endfacet
  facet normal 0 -1 0
    outer loop
      vertex -3 -7.62939e-007 37.75
      vertex 0 -7.62939e-007 36.15
      vertex 3 -7.62939e-007 37.75
    endloop
  endfacet
  facet normal 0 -1 0
    outer loop
      vertex -3 -7.62939e-007 37.75
      vertex -0.565762 -7.62939e-007 36.0943
      vertex 0 -7.62939e-007 36.15
    endloop
  endfacet
  facet normal 0 -1 0
    outer loop
      vertex -3 -7.62939e-007 37.75
      vertex -1.10978 -7.62939e-007 35.9292
      vertex -0.565762 -7.62939e-007 36.0943
    endloop
  endfacet
  facet normal 0 -1 0
    outer loop
      vertex -3 -7.62939e-007 37.75
      vertex -1.61115 -7.62939e-007 35.6613
      vertex -1.10978 -7.62939e-007 35.9292
    endloop
  endfacet
  facet normal 0 -1 0
    outer loop
      vertex -3 -7.62939e-007 37.75
      vertex -2.05061 -7.62939e-007 35.3006
      vertex -1.61115 -7.62939e-007 35.6613
    endloop
  endfacet
  facet normal 0 -1 0
    outer loop
      vertex -3 -7.62939e-007 37.75
      vertex -2.41126 -7.62939e-007 34.8612
      vertex -2.05061 -7.62939e-007 35.3006
    endloop
  endfacet
  facet normal 0 -1 0
    outer loop
      vertex -3 -7.62939e-007 37.75
      vertex -2.67925 -7.62939e-007 34.3598
      vertex -2.41126 -7.62939e-007 34.8612
    endloop
  endfacet
  facet normal 0 -1 0
    outer loop
      vertex -3 -7.62939e-007 37.75
      vertex -2.84428 -7.62939e-007 33.8158
      vertex -2.67925 -7.62939e-007 34.3598
    endloop
  endfacet
  facet normal 0 -1 0
    outer loop
      vertex -3 -7.62939e-007 37.75
      vertex -2.9 -7.62939e-007 33.25
      vertex -2.84428 -7.62939e-007 33.8158
    endloop
  endfacet
  facet normal 0 -1 -0
    outer loop
      vertex -0.565762 -7.62939e-007 30.4057
      vertex -3 -7.62939e-007 28.75
      vertex 0 -7.62939e-007 30.35
    endloop
  endfacet
  facet normal 0 -1 -0
    outer loop
      vertex -1.10978 -7.62939e-007 30.5707
      vertex -3 -7.62939e-007 28.75
      vertex -0.565762 -7.62939e-007 30.4057
    endloop
  endfacet
  facet normal 0 -1 -0
    outer loop
      vertex -1.61115 -7.62939e-007 30.8387
      vertex -3 -7.62939e-007 28.75
      vertex -1.10978 -7.62939e-007 30.5707
    endloop
  endfacet
  facet normal 0 -1 -0
    outer loop
      vertex -2.05061 -7.62939e-007 31.1994
      vertex -3 -7.62939e-007 28.75
      vertex -1.61115 -7.62939e-007 30.8387
    endloop
  endfacet
  facet normal 0 -1 -0
    outer loop
      vertex -2.41126 -7.62939e-007 31.6388
      vertex -3 -7.62939e-007 28.75
      vertex -2.05061 -7.62939e-007 31.1994
    endloop
  endfacet
  facet normal 0 -1 -0
    outer loop
      vertex -2.67925 -7.62939e-007 32.1402
      vertex -3 -7.62939e-007 28.75
      vertex -2.41126 -7.62939e-007 31.6388
    endloop
  endfacet
  facet normal 0 -1 -0
    outer loop
      vertex -2.84428 -7.62939e-007 32.6842
      vertex -3 -7.62939e-007 28.75
      vertex -2.67925 -7.62939e-007 32.1402
    endloop
  endfacet
  facet normal 0 -1 -0
    outer loop
      vertex -2.9 -7.62939e-007 33.25
      vertex -3 -7.62939e-007 28.75
      vertex -2.84428 -7.62939e-007 32.6842
    endloop
  endfacet
  facet normal 0 -1 0
    outer loop
      vertex -3 -7.62939e-007 28.75
      vertex -2.9 -7.62939e-007 33.25
      vertex -3 -7.62939e-007 37.75
    endloop
  endfacet
  facet normal 0 -1 0
    outer loop
      vertex 0.565762 -7.62939e-007 36.0943
      vertex 3 -7.62939e-007 37.75
      vertex 0 -7.62939e-007 36.15
    endloop
  endfacet
  facet normal 0 -1 0
    outer loop
      vertex 1.10978 -7.62939e-007 35.9292
      vertex 3 -7.62939e-007 37.75
      vertex 0.565762 -7.62939e-007 36.0943
    endloop
  endfacet
  facet normal 0 -1 0
    outer loop
      vertex 1.61115 -7.62939e-007 35.6613
      vertex 3 -7.62939e-007 37.75
      vertex 1.10978 -7.62939e-007 35.9292
    endloop
  endfacet
  facet normal 0 -1 0
    outer loop
      vertex 2.05061 -7.62939e-007 35.3006
      vertex 3 -7.62939e-007 37.75
      vertex 1.61115 -7.62939e-007 35.6613
    endloop
  endfacet
  facet normal 0 -1 0
    outer loop
      vertex 2.41126 -7.62939e-007 34.8612
      vertex 3 -7.62939e-007 37.75
      vertex 2.05061 -7.62939e-007 35.3006
    endloop
  endfacet
  facet normal 0 -1 0
    outer loop
      vertex 2.67925 -7.62939e-007 34.3598
      vertex 3 -7.62939e-007 37.75
      vertex 2.41126 -7.62939e-007 34.8612
    endloop
  endfacet
  facet normal 0 -1 0
    outer loop
      vertex 2.84428 -7.62939e-007 33.8158
      vertex 3 -7.62939e-007 37.75
      vertex 2.67925 -7.62939e-007 34.3598
    endloop
  endfacet
  facet normal 0 -1 0
    outer loop
      vertex 2.9 -7.62939e-007 33.25
      vertex 3 -7.62939e-007 37.75
      vertex 2.84428 -7.62939e-007 33.8158
    endloop
  endfacet
  facet normal 0 -1 0
    outer loop
      vertex 3 -7.62939e-007 28.75
      vertex 0 -7.62939e-007 30.35
      vertex -3 -7.62939e-007 28.75
    endloop
  endfacet
  facet normal 0 -1 0
    outer loop
      vertex 0 -7.62939e-007 30.35
      vertex 3 -7.62939e-007 28.75
      vertex 0.565762 -7.62939e-007 30.4057
    endloop
  endfacet
  facet normal 0 -1 0
    outer loop
      vertex 2.9 -7.62939e-007 33.25
      vertex 3 -7.62939e-007 28.75
      vertex 3 -7.62939e-007 37.75
    endloop
  endfacet
  facet normal 0 -1 0
    outer loop
      vertex 2.84428 -7.62939e-007 32.6842
      vertex 3 -7.62939e-007 28.75
      vertex 2.9 -7.62939e-007 33.25
    endloop
  endfacet
  facet normal 0 -1 0
    outer loop
      vertex 2.67925 -7.62939e-007 32.1402
      vertex 3 -7.62939e-007 28.75
      vertex 2.84428 -7.62939e-007 32.6842
    endloop
  endfacet
  facet normal 0 -1 0
    outer loop
      vertex 2.41126 -7.62939e-007 31.6388
      vertex 3 -7.62939e-007 28.75
      vertex 2.67925 -7.62939e-007 32.1402
    endloop
  endfacet
  facet normal 0 -1 0
    outer loop
      vertex 2.05061 -7.62939e-007 31.1994
      vertex 3 -7.62939e-007 28.75
      vertex 2.41126 -7.62939e-007 31.6388
    endloop
  endfacet
  facet normal 0 -1 0
    outer loop
      vertex 1.61115 -7.62939e-007 30.8387
      vertex 3 -7.62939e-007 28.75
      vertex 2.05061 -7.62939e-007 31.1994
    endloop
  endfacet
  facet normal 0 -1 0
    outer loop
      vertex 1.10978 -7.62939e-007 30.5707
      vertex 3 -7.62939e-007 28.75
      vertex 1.61115 -7.62939e-007 30.8387
    endloop
  endfacet
  facet normal 0 -1 0
    outer loop
      vertex 0.565762 -7.62939e-007 30.4057
      vertex 3 -7.62939e-007 28.75
      vertex 1.10978 -7.62939e-007 30.5707
    endloop
  endfacet
  facet normal 0 0 1
    outer loop
      vertex 3 -7.62939e-007 28.75
      vertex 2.5 -3 28.75
      vertex 3 -2.5 28.75
    endloop
  endfacet
  facet normal 0 0 1
    outer loop
      vertex 3 -7.62939e-007 28.75
      vertex -2.5 -3 28.75
      vertex 2.5 -3 28.75
    endloop
  endfacet
  facet normal -0 0 1
    outer loop
      vertex -3 -7.62939e-007 28.75
      vertex -2.5 -3 28.75
      vertex 3 -7.62939e-007 28.75
    endloop
  endfacet
  facet normal 0 0 1
    outer loop
      vertex -2.5 -3 28.75
      vertex -3 -7.62939e-007 28.75
      vertex -3 -2.5 28.75
    endloop
  endfacet
  facet normal 0 0 -1
    outer loop
      vertex 2.5 -3 37.75
      vertex 3 -7.62939e-007 37.75
      vertex 3 -2.5 37.75
    endloop
  endfacet
  facet normal 0 0 -1
    outer loop
      vertex -2.5 -3 37.75
      vertex 3 -7.62939e-007 37.75
      vertex 2.5 -3 37.75
    endloop
  endfacet
  facet normal 0 0 -1
    outer loop
      vertex -3 -7.62939e-007 37.75
      vertex -2.5 -3 37.75
      vertex -3 -2.5 37.75
    endloop
  endfacet
  facet normal 0 0 -1
    outer loop
      vertex -2.5 -3 37.75
      vertex -3 -7.62939e-007 37.75
      vertex 3 -7.62939e-007 37.75
    endloop
  endfacet
  facet normal 0 1 0
    outer loop
      vertex 5.25 4 38.4
      vertex 0 4 36.15
      vertex -5.25 4 38.4
    endloop
  endfacet
  facet normal 0 1 0
    outer loop
      vertex 5.25 4 38.4
      vertex 0.565762 4 36.0943
      vertex 0 4 36.15
    endloop
  endfacet
  facet normal 0 1 0
    outer loop
      vertex 5.25 4 38.4
      vertex 1.10978 4 35.9292
      vertex 0.565762 4 36.0943
    endloop
  endfacet
  facet normal 0 1 0
    outer loop
      vertex 5.25 4 38.4
      vertex 1.61115 4 35.6613
      vertex 1.10978 4 35.9292
    endloop
  endfacet
  facet normal 0 1 0
    outer loop
      vertex 5.25 4 38.4
      vertex 2.05061 4 35.3006
      vertex 1.61115 4 35.6613
    endloop
  endfacet
  facet normal 0 1 0
    outer loop
      vertex 5.25 4 38.4
      vertex 2.41126 4 34.8612
      vertex 2.05061 4 35.3006
    endloop
  endfacet
  facet normal 0 1 0
    outer loop
      vertex 5.25 4 38.4
      vertex 2.67925 4 34.3598
      vertex 2.41126 4 34.8612
    endloop
  endfacet
  facet normal 0 1 0
    outer loop
      vertex 5.25 4 38.4
      vertex 2.84428 4 33.8158
      vertex 2.67925 4 34.3598
    endloop
  endfacet
  facet normal 0 1 -0
    outer loop
      vertex 5.24999 4 31.0833
      vertex 2.84428 4 33.8158
      vertex 5.25 4 38.4
    endloop
  endfacet
  facet normal 0 1 0
    outer loop
      vertex 2.84428 4 33.8158
      vertex 5.24999 4 31.0833
      vertex 2.9 4 33.25
    endloop
  endfacet
  facet normal 0 1 0
    outer loop
      vertex 2.9 4 33.25
      vertex 5.24999 4 31.0833
      vertex 2.84428 4 32.6842
    endloop
  endfacet
  facet normal 0 1 0
    outer loop
      vertex 2.41126 4 31.6388
      vertex 5.24999 4 31.0833
      vertex 2.05061 4 31.1994
    endloop
  endfacet
  facet normal 0 1 0
    outer loop
      vertex 2.67925 4 32.1402
      vertex 5.24999 4 31.0833
      vertex 2.41126 4 31.6388
    endloop
  endfacet
  facet normal 0 1 0
    outer loop
      vertex 2.84428 4 32.6842
      vertex 5.24999 4 31.0833
      vertex 2.67925 4 32.1402
    endloop
  endfacet
  facet normal 0 1 0
    outer loop
      vertex 5.25 4 27.75
      vertex 5.24999 4 31.0833
      vertex 5.25 4 38.4
    endloop
  endfacet
  facet normal 0 1 0
    outer loop
      vertex 5.24999 4 31.0833
      vertex 5.25 4 27.75
      vertex 5.24999 4 27.75
    endloop
  endfacet
  facet normal 0 1 -0
    outer loop
      vertex -0.565762 4 36.0943
      vertex -5.25 4 38.4
      vertex 0 4 36.15
    endloop
  endfacet
  facet normal 0 1 -0
    outer loop
      vertex -1.10978 4 35.9292
      vertex -5.25 4 38.4
      vertex -0.565762 4 36.0943
    endloop
  endfacet
  facet normal 0 1 -0
    outer loop
      vertex -1.61115 4 35.6613
      vertex -5.25 4 38.4
      vertex -1.10978 4 35.9292
    endloop
  endfacet
  facet normal 0 1 -0
    outer loop
      vertex -2.05061 4 35.3006
      vertex -5.25 4 38.4
      vertex -1.61115 4 35.6613
    endloop
  endfacet
  facet normal 0 1 -0
    outer loop
      vertex -2.41126 4 34.8612
      vertex -5.25 4 38.4
      vertex -2.05061 4 35.3006
    endloop
  endfacet
  facet normal 0 1 -0
    outer loop
      vertex -2.67925 4 34.3598
      vertex -5.25 4 38.4
      vertex -2.41126 4 34.8612
    endloop
  endfacet
  facet normal 0 1 -0
    outer loop
      vertex -2.84428 4 33.8158
      vertex -5.25 4 38.4
      vertex -2.67925 4 34.3598
    endloop
  endfacet
  facet normal 0 1 0
    outer loop
      vertex -5.25 4 31.0833
      vertex -2.84428 4 33.8158
      vertex -2.9 4 33.25
    endloop
  endfacet
  facet normal 0 1 0
    outer loop
      vertex -5.25 4 31.0833
      vertex -2.9 4 33.25
      vertex -2.84428 4 32.6842
    endloop
  endfacet
  facet normal 0 1 0
    outer loop
      vertex -5.25 4 31.0833
      vertex -2.84428 4 32.6842
      vertex -2.67925 4 32.1402
    endloop
  endfacet
  facet normal 0 1 0
    outer loop
      vertex -2.84428 4 33.8158
      vertex -5.25 4 31.0833
      vertex -5.25 4 38.4
    endloop
  endfacet
  facet normal 0 1 0
    outer loop
      vertex -2.41126 4 31.6388
      vertex -5.25 4 31.0833
      vertex -2.67925 4 32.1402
    endloop
  endfacet
  facet normal 0 1 0
    outer loop
      vertex -2.05061 4 31.1994
      vertex -5.25 4 31.0833
      vertex -2.41126 4 31.6388
    endloop
  endfacet
  facet normal 0 1 -0
    outer loop
      vertex -1.91667 4 27.75
      vertex -2.05061 4 31.1994
      vertex -1.61115 4 30.8387
    endloop
  endfacet
  facet normal 0 1 0
    outer loop
      vertex -1.91667 4 27.75
      vertex -1.61115 4 30.8387
      vertex -1.10978 4 30.5707
    endloop
  endfacet
  facet normal 0 1 0
    outer loop
      vertex -1.91667 4 27.75
      vertex -1.10978 4 30.5707
      vertex -0.565762 4 30.4057
    endloop
  endfacet
  facet normal 0 1 0
    outer loop
      vertex -1.91667 4 27.75
      vertex 0 4 30.35
      vertex 1.91667 4 27.75
    endloop
  endfacet
  facet normal 0 1 0
    outer loop
      vertex 0 4 30.35
      vertex -1.91667 4 27.75
      vertex -0.565762 4 30.4057
    endloop
  endfacet
  facet normal 0 1 0
    outer loop
      vertex -2.05061 4 31.1994
      vertex -1.91667 4 27.75
      vertex -5.25 4 31.0833
    endloop
  endfacet
  facet normal 0 1 0
    outer loop
      vertex 1.91667 4 27.75
      vertex 2.05061 4 31.1994
      vertex 5.24999 4 31.0833
    endloop
  endfacet
  facet normal 0 1 0
    outer loop
      vertex 2.05061 4 31.1994
      vertex 1.91667 4 27.75
      vertex 1.61115 4 30.8387
    endloop
  endfacet
  facet normal 0 1 0
    outer loop
      vertex 1.61115 4 30.8387
      vertex 1.91667 4 27.75
      vertex 1.10978 4 30.5707
    endloop
  endfacet
  facet normal 0 1 0
    outer loop
      vertex 0.565762 4 30.4057
      vertex 1.91667 4 27.75
      vertex 0 4 30.35
    endloop
  endfacet
  facet normal 0 1 0
    outer loop
      vertex 1.10978 4 30.5707
      vertex 1.91667 4 27.75
      vertex 0.565762 4 30.4057
    endloop
  endfacet
  facet normal 0 0.707107 0.707107
    outer loop
      vertex 5.25 4 27.75
      vertex 5.24999 27.7499 4.00011
      vertex 5.24999 4 27.75
    endloop
  endfacet
  facet normal 0 0.707107 0.707107
    outer loop
      vertex 5.24999 27.7499 4.00011
      vertex 5.25 4 27.75
      vertex 5.25 27.75 4
    endloop
  endfacet
  facet normal 0 0.707107 0.707107
    outer loop
      vertex 1.91667 4 27.75
      vertex -1.91667 27.7497 4.00027
      vertex -1.91667 4 27.75
    endloop
  endfacet
  facet normal -8.79589e-008 0.707107 0.707107
    outer loop
      vertex -1.91667 27.7497 4.00027
      vertex 1.91667 4 27.75
      vertex 1.91667 27.7498 4.00018
    endloop
  endfacet
  facet normal -1.01153e-007 0.707107 0.707107
    outer loop
      vertex 5.25 27.75 4
      vertex 1.91667 27.7498 4.00018
      vertex 5.24999 27.7499 4.00011
    endloop
  endfacet
  facet normal -7.85572e-008 0.706901 0.707313
    outer loop
      vertex 5.25 27.75 4
      vertex -1.91667 27.7497 4.00027
      vertex 1.91667 27.7498 4.00018
    endloop
  endfacet
  facet normal -0 0.705859 0.708353
    outer loop
      vertex -5.25 27.75 4
      vertex -1.91667 27.7497 4.00027
      vertex 5.25 27.75 4
    endloop
  endfacet
  facet normal 4.45238e-008 0.706133 0.708079
    outer loop
      vertex -1.91667 27.7497 4.00027
      vertex -5.25 27.75 4
      vertex -5.25 27.7497 4.00035
    endloop
  endfacet
  facet normal 0 0 1
    outer loop
      vertex 5.25 38.4 4
      vertex 5.24999 31.0833 4
      vertex 5.25 27.75 4
    endloop
  endfacet
  facet normal -0 0 1
    outer loop
      vertex 2.84428 33.8158 4
      vertex 5.24999 31.0833 4
      vertex 5.25 38.4 4
    endloop
  endfacet
  facet normal 0 0 1
    outer loop
      vertex 5.24999 31.0833 4
      vertex 2.84428 33.8158 4
      vertex 2.9 33.25 4
    endloop
  endfacet
  facet normal 0 0 1
    outer loop
      vertex 5.25 38.4 4
      vertex 2.67925 34.3598 4
      vertex 2.84428 33.8158 4
    endloop
  endfacet
  facet normal 0 0 1
    outer loop
      vertex 5.25 38.4 4
      vertex 2.41126 34.8612 4
      vertex 2.67925 34.3598 4
    endloop
  endfacet
  facet normal 0 0 1
    outer loop
      vertex 5.25 38.4 4
      vertex 2.05061 35.3006 4
      vertex 2.41126 34.8612 4
    endloop
  endfacet
  facet normal 0 0 1
    outer loop
      vertex 5.25 38.4 4
      vertex 1.61115 35.6613 4
      vertex 2.05061 35.3006 4
    endloop
  endfacet
  facet normal 0 0 1
    outer loop
      vertex 5.25 38.4 4
      vertex 1.10978 35.9292 4
      vertex 1.61115 35.6613 4
    endloop
  endfacet
  facet normal 0 0 1
    outer loop
      vertex 5.25 38.4 4
      vertex 0.565762 36.0943 4
      vertex 1.10978 35.9292 4
    endloop
  endfacet
  facet normal 0 0 1
    outer loop
      vertex 5.25 38.4 4
      vertex 0 36.15 4
      vertex 0.565762 36.0943 4
    endloop
  endfacet
  facet normal -0 0 1
    outer loop
      vertex -5.25 38.4 4
      vertex 0 36.15 4
      vertex 5.25 38.4 4
    endloop
  endfacet
  facet normal 0 0 1
    outer loop
      vertex 0 36.15 4
      vertex -5.25 38.4 4
      vertex -0.565762 36.0943 4
    endloop
  endfacet
  facet normal 0 0 1
    outer loop
      vertex -5.25 31.0833 4
      vertex -2.84428 33.8158 4
      vertex -5.25 38.4 4
    endloop
  endfacet
  facet normal 0 0 1
    outer loop
      vertex -2.67925 34.3598 4
      vertex -5.25 38.4 4
      vertex -2.84428 33.8158 4
    endloop
  endfacet
  facet normal 0 0 1
    outer loop
      vertex -2.41126 34.8612 4
      vertex -5.25 38.4 4
      vertex -2.67925 34.3598 4
    endloop
  endfacet
  facet normal 0 0 1
    outer loop
      vertex -2.05061 35.3006 4
      vertex -5.25 38.4 4
      vertex -2.41126 34.8612 4
    endloop
  endfacet
  facet normal 0 0 1
    outer loop
      vertex -1.61115 35.6613 4
      vertex -5.25 38.4 4
      vertex -2.05061 35.3006 4
    endloop
  endfacet
  facet normal 0 0 1
    outer loop
      vertex -1.10978 35.9292 4
      vertex -5.25 38.4 4
      vertex -1.61115 35.6613 4
    endloop
  endfacet
  facet normal 0 0 1
    outer loop
      vertex -0.565762 36.0943 4
      vertex -5.25 38.4 4
      vertex -1.10978 35.9292 4
    endloop
  endfacet
  facet normal 0 0 1
    outer loop
      vertex 5.25 27.75 4
      vertex 5.24999 31.0833 4
      vertex 5.24999 27.75 4
    endloop
  endfacet
  facet normal -0 0 1
    outer loop
      vertex 2.84428 32.6842 4
      vertex 5.24999 31.0833 4
      vertex 2.9 33.25 4
    endloop
  endfacet
  facet normal -0 0 1
    outer loop
      vertex 2.67925 32.1402 4
      vertex 5.24999 31.0833 4
      vertex 2.84428 32.6842 4
    endloop
  endfacet
  facet normal -0 0 1
    outer loop
      vertex 2.41126 31.6388 4
      vertex 5.24999 31.0833 4
      vertex 2.67925 32.1402 4
    endloop
  endfacet
  facet normal -0 0 1
    outer loop
      vertex 2.05061 31.1994 4
      vertex 5.24999 31.0833 4
      vertex 2.41126 31.6388 4
    endloop
  endfacet
  facet normal 0 0 1
    outer loop
      vertex 2.05061 31.1994 4
      vertex 1.91667 27.75 4
      vertex 5.24999 31.0833 4
    endloop
  endfacet
  facet normal -0 0 1
    outer loop
      vertex 1.61115 30.8387 4
      vertex 1.91667 27.75 4
      vertex 2.05061 31.1994 4
    endloop
  endfacet
  facet normal -0 0 1
    outer loop
      vertex 1.10978 30.5708 4
      vertex 1.91667 27.75 4
      vertex 1.61115 30.8387 4
    endloop
  endfacet
  facet normal -0 0 1
    outer loop
      vertex 0.565762 30.4057 4
      vertex 1.91667 27.75 4
      vertex 1.10978 30.5708 4
    endloop
  endfacet
  facet normal -0 0 1
    outer loop
      vertex 0 30.35 4
      vertex 1.91667 27.75 4
      vertex 0.565762 30.4057 4
    endloop
  endfacet
  facet normal 0 0 1
    outer loop
      vertex -1.91667 27.75 4
      vertex 0 30.35 4
      vertex -0.565762 30.4057 4
    endloop
  endfacet
  facet normal 0 0 1
    outer loop
      vertex -1.91667 27.75 4
      vertex -0.565762 30.4057 4
      vertex -1.10978 30.5708 4
    endloop
  endfacet
  facet normal 0 0 1
    outer loop
      vertex -1.91667 27.75 4
      vertex -1.10978 30.5708 4
      vertex -1.61115 30.8387 4
    endloop
  endfacet
  facet normal 0 0 1
    outer loop
      vertex 0 30.35 4
      vertex -1.91667 27.75 4
      vertex 1.91667 27.75 4
    endloop
  endfacet
  facet normal 0 0 1
    outer loop
      vertex -2.05061 31.1994 4
      vertex -1.91667 27.75 4
      vertex -1.61115 30.8387 4
    endloop
  endfacet
  facet normal 0 0 1
    outer loop
      vertex -5.25 31.0833 4
      vertex -2.05061 31.1994 4
      vertex -2.41126 31.6388 4
    endloop
  endfacet
  facet normal 0 0 1
    outer loop
      vertex -5.25 31.0833 4
      vertex -2.41126 31.6388 4
      vertex -2.67925 32.1402 4
    endloop
  endfacet
  facet normal 0 0 1
    outer loop
      vertex -5.25 31.0833 4
      vertex -2.67925 32.1402 4
      vertex -2.84428 32.6842 4
    endloop
  endfacet
  facet normal 0 0 1
    outer loop
      vertex -2.84428 33.8158 4
      vertex -5.25 31.0833 4
      vertex -2.9 33.25 4
    endloop
  endfacet
  facet normal 0 0 1
    outer loop
      vertex -2.9 33.25 4
      vertex -5.25 31.0833 4
      vertex -2.84428 32.6842 4
    endloop
  endfacet
  facet normal 0 0 1
    outer loop
      vertex -2.05061 31.1994 4
      vertex -5.25 31.0833 4
      vertex -1.91667 27.75 4
    endloop
  endfacet
  facet normal 0 0 0
    outer loop
      vertex -1.91667 27.75 4
      vertex -5.25 27.75 4
      vertex 5.25 27.75 4
    endloop
  endfacet
  facet normal 0 0 0
    outer loop
      vertex 5.24999 27.75 4
      vertex 1.91667 27.75 4
      vertex -1.91667 27.75 4
    endloop
  endfacet
  facet normal 0 0 0
    outer loop
      vertex 5.24999 27.75 4
      vertex -1.91667 27.75 4
      vertex 5.25 27.75 4
    endloop
  endfacet
  facet normal 1.01153e-007 -0.707107 -0.707107
    outer loop
      vertex 1.91667 27.7498 4.00018
      vertex 5.24999 27.75 4
      vertex 5.24999 27.7499 4.00011
    endloop
  endfacet
  facet normal -0 -0.706184 -0.708028
    outer loop
      vertex 5.24999 27.75 4
      vertex 1.91667 27.7498 4.00018
      vertex 1.91667 27.75 4
    endloop
  endfacet
  facet normal -0.707107 0.707107 0
    outer loop
      vertex 1.91667 27.75 4
      vertex 5.24999 31.0833 4.05
      vertex 5.24999 31.0833 4
    endloop
  endfacet
  facet normal -0.707107 0.707107 0
    outer loop
      vertex 5.24999 31.0833 4.05
      vertex 1.91667 27.75 4
      vertex 1.91667 27.75 4.05
    endloop
  endfacet
  facet normal -0.576994 0.576994 0.578061
    outer loop
      vertex 5.24999 31.0833 4.05
      vertex 1.91667 27.75 4.05
      vertex 5.24999 4 31.0833
    endloop
  endfacet
  facet normal -0.577755 0.576539 0.577755
    outer loop
      vertex 1.91667 27.75 4.05
      vertex 1.91667 4 27.75
      vertex 5.24999 4 31.0833
    endloop
  endfacet
  facet normal -1 0 0
    outer loop
      vertex 1.91667 27.7498 4.00018
      vertex 1.91667 27.75 4.05
      vertex 1.91667 27.75 4
    endloop
  endfacet
  facet normal -1 -0 0
    outer loop
      vertex 1.91667 27.75 4.05
      vertex 1.91667 27.7498 4.00018
      vertex 1.91667 4 27.75
    endloop
  endfacet
  facet normal 1 0 0
    outer loop
      vertex 5.24999 31.0833 4.05
      vertex 5.24999 27.75 4
      vertex 5.24999 31.0833 4
    endloop
  endfacet
  facet normal 1 0 0
    outer loop
      vertex 5.24999 31.0833 4.05
      vertex 5.24999 27.7499 4.00011
      vertex 5.24999 27.75 4
    endloop
  endfacet
  facet normal 1 -0 0
    outer loop
      vertex 5.24999 4 27.75
      vertex 5.24999 31.0833 4.05
      vertex 5.24999 4 31.0833
    endloop
  endfacet
  facet normal 1 0 0
    outer loop
      vertex 5.24999 31.0833 4.05
      vertex 5.24999 4 27.75
      vertex 5.24999 27.7499 4.00011
    endloop
  endfacet
  facet normal 0.707107 0.707107 0
    outer loop
      vertex -1.91667 27.75 4.05
      vertex -5.25 31.0833 4
      vertex -5.25 31.0833 4.05
    endloop
  endfacet
  facet normal 0.707107 0.707107 0
    outer loop
      vertex -5.25 31.0833 4
      vertex -1.91667 27.75 4.05
      vertex -1.91667 27.75 4
    endloop
  endfacet
  facet normal 0.576994 0.576994 0.578061
    outer loop
      vertex -5.25 31.0833 4.05
      vertex -5.25 4 31.0833
      vertex -1.91667 27.75 4.05
    endloop
  endfacet
  facet normal -5.70878e-008 -0.705859 -0.708353
    outer loop
      vertex -5.25 27.7497 4.00035
      vertex -1.91667 27.75 4
      vertex -1.91667 27.7497 4.00027
    endloop
  endfacet
  facet normal -0 -0.706133 -0.708079
    outer loop
      vertex -1.91667 27.75 4
      vertex -5.25 27.7497 4.00035
      vertex -5.25 27.75 4
    endloop
  endfacet
  facet normal 1 0 0
    outer loop
      vertex -1.91667 27.75 4.05
      vertex -1.91667 27.7497 4.00027
      vertex -1.91667 27.75 4
    endloop
  endfacet
  facet normal 1 0 -0
    outer loop
      vertex -1.91667 27.7497 4.00027
      vertex -1.91667 27.75 4.05
      vertex -1.91667 4 27.75
    endloop
  endfacet
  facet normal 0.577755 0.576539 0.577755
    outer loop
      vertex -5.25 4 31.0833
      vertex -1.91667 4 27.75
      vertex -1.91667 27.75 4.05
    endloop
  endfacet
  facet normal -1 0 0
    outer loop
      vertex -10 3.29999 20.3
      vertex -10 4 38.4
      vertex -10 4 19.6
    endloop
  endfacet
  facet normal -1 0 0
    outer loop
      vertex -10 0 20.3
      vertex -10 4 38.4
      vertex -10 3.29999 20.3
    endloop
  endfacet
  facet normal -1 0 0
    outer loop
      vertex -10 0 40
      vertex -10 4 38.4
      vertex -10 0 20.3
    endloop
  endfacet
  facet normal -1 0 0
    outer loop
      vertex -10 4 38.4
      vertex -10 0 40
      vertex -10 2.4 40
    endloop
  endfacet
  facet normal -1 0 0
    outer loop
      vertex -10 40 0
      vertex -10 38.4 4
      vertex -10 40 2.4
    endloop
  endfacet
  facet normal -1 0 0
    outer loop
      vertex -10 20.3 0
      vertex -10 38.4 4
      vertex -10 40 0
    endloop
  endfacet
  facet normal -1 0 0
    outer loop
      vertex -10 20.3 3.29999
      vertex -10 38.4 4
      vertex -10 20.3 0
    endloop
  endfacet
  facet normal -1 -0 0
    outer loop
      vertex -10 38.4 4
      vertex -10 20.3 3.29999
      vertex -10 19.6 4
    endloop
  endfacet
  facet normal 1 0 0
    outer loop
      vertex 10 4 38.4
      vertex 10 3.29999 20.3
      vertex 10 4 19.6
    endloop
  endfacet
  facet normal 1 -0 0
    outer loop
      vertex 10 0 40
      vertex 10 4 38.4
      vertex 10 2.4 40
    endloop
  endfacet
  facet normal 1 0 0
    outer loop
      vertex 10 4 38.4
      vertex 10 0 40
      vertex 10 0 20.3
    endloop
  endfacet
  facet normal 1 0 0
    outer loop
      vertex 10 4 38.4
      vertex 10 0 20.3
      vertex 10 3.29999 20.3
    endloop
  endfacet
  facet normal 1 0 0
    outer loop
      vertex 10 38.4 4
      vertex 10 19.6 4
      vertex 10 20.3 3.29999
    endloop
  endfacet
  facet normal 1 0 0
    outer loop
      vertex 10 38.4 4
      vertex 10 40 0
      vertex 10 40 2.4
    endloop
  endfacet
  facet normal 1 0 0
    outer loop
      vertex 10 20.3 0
      vertex 10 38.4 4
      vertex 10 20.3 3.29999
    endloop
  endfacet
  facet normal 1 0 0
    outer loop
      vertex 10 38.4 4
      vertex 10 20.3 0
      vertex 10 40 0
    endloop
  endfacet
  facet normal -1 0 -2.00774e-008
    outer loop
      vertex 5.25 4 27.75
      vertex 5.25 38.4 4
      vertex 5.25 27.75 4
    endloop
  endfacet
  facet normal -1 -1.70503e-008 -4.47734e-008
    outer loop
      vertex 5.25 38.4 4
      vertex 5.25 4 27.75
      vertex 5.25 4 38.4
    endloop
  endfacet
  facet normal 1 0 2.77231e-008
    outer loop
      vertex 10 4 38.4
      vertex 10 19.6 4
      vertex 10 38.4 4
    endloop
  endfacet
  facet normal 1 5.07273e-008 5.07273e-008
    outer loop
      vertex 10 19.6 4
      vertex 10 4 38.4
      vertex 10 4 19.6
    endloop
  endfacet
  facet normal -1 5.07273e-008 5.07273e-008
    outer loop
      vertex -10 4 19.6
      vertex -10 38.4 4
      vertex -10 19.6 4
    endloop
  endfacet
  facet normal -1 2.77231e-008 0
    outer loop
      vertex -10 38.4 4
      vertex -10 4 19.6
      vertex -10 4 38.4
    endloop
  endfacet
  facet normal 1 1.90752e-010 2.79138e-008
    outer loop
      vertex -5.25 4 38.4
      vertex -5.25 31.0833 4.05
      vertex -5.25 38.4 4
    endloop
  endfacet
  facet normal 1 -3.52126e-008 0
    outer loop
      vertex -5.25 31.0833 4.05
      vertex -5.25 4 38.4
      vertex -5.25 4 31.0833
    endloop
  endfacet
  facet normal 1 0 0
    outer loop
      vertex -5.25 38.4 4
      vertex -5.25 31.0833 4.05
      vertex -5.25 31.0833 4
    endloop
  endfacet
  facet normal 0 0.707107 0.707107
    outer loop
      vertex 10 38.4 4
      vertex 5.25 4 38.4
      vertex 10 4 38.4
    endloop
  endfacet
  facet normal 0 0.707107 0.707107
    outer loop
      vertex 10 38.4 4
      vertex 5.25 38.4 4
      vertex 5.25 4 38.4
    endloop
  endfacet
  facet normal 0 0.707107 0.707106
    outer loop
      vertex 10 40 2.4
      vertex 5.25 38.4 4
      vertex 10 38.4 4
    endloop
  endfacet
  facet normal 0 0.707107 0.707106
    outer loop
      vertex 5.25 38.4 4
      vertex 10 40 2.4
      vertex -5.25 38.4 4
    endloop
  endfacet
  facet normal -0 0.707107 0.707106
    outer loop
      vertex -10 40 2.4
      vertex -5.25 38.4 4
      vertex 10 40 2.4
    endloop
  endfacet
  facet normal 0 0.707107 0.707106
    outer loop
      vertex -5.25 38.4 4
      vertex -10 40 2.4
      vertex -10 38.4 4
    endloop
  endfacet
  facet normal -0 0.707107 0.707107
    outer loop
      vertex 5.25 4 38.4
      vertex 10 2.4 40
      vertex 10 4 38.4
    endloop
  endfacet
  facet normal 0 0.707107 0.707107
    outer loop
      vertex 10 2.4 40
      vertex 5.25 4 38.4
      vertex -10 2.4 40
    endloop
  endfacet
  facet normal -0 0.707107 0.707107
    outer loop
      vertex -5.25 4 38.4
      vertex -10 2.4 40
      vertex 5.25 4 38.4
    endloop
  endfacet
  facet normal 0 0.707107 0.707107
    outer loop
      vertex -5.25 4 38.4
      vertex -10 4 38.4
      vertex -10 2.4 40
    endloop
  endfacet
  facet normal 0 0.707107 0.707107
    outer loop
      vertex -5.25 38.4 4
      vertex -10 4 38.4
      vertex -5.25 4 38.4
    endloop
  endfacet
  facet normal 0 0.707107 0.707107
    outer loop
      vertex -10 4 38.4
      vertex -5.25 38.4 4
      vertex -10 38.4 4
    endloop
  endfacet
  facet normal 0 -1 0
    outer loop
      vertex 2.5 20.3 -3
      vertex 3 20.3 0
      vertex -3 20.3 0
    endloop
  endfacet
  facet normal 0 -1 0
    outer loop
      vertex -2.5 20.3 -3
      vertex -3 20.3 0
      vertex -3 20.3 -2.5
    endloop
  endfacet
  facet normal 0 -1 0
    outer loop
      vertex 2.5 20.3 -3
      vertex -3 20.3 0
      vertex -2.5 20.3 -3
    endloop
  endfacet
  facet normal 0 -1 -0
    outer loop
      vertex 3 20.3 0
      vertex 2.5 20.3 -3
      vertex 3 20.3 -2.5
    endloop
  endfacet
  facet normal 0 -1 0
    outer loop
      vertex -3 20.3 0
      vertex -10 20.3 3.29999
      vertex -10 20.3 0
    endloop
  endfacet
  facet normal 0 -1 0
    outer loop
      vertex -10 20.3 3.29999
      vertex -3 20.3 0
      vertex 10 20.3 3.29999
    endloop
  endfacet
  facet normal 0 -1 0
    outer loop
      vertex 3 20.3 0
      vertex 10 20.3 3.29999
      vertex -3 20.3 0
    endloop
  endfacet
  facet normal 0 -1 -0
    outer loop
      vertex 10 20.3 3.29999
      vertex 3 20.3 0
      vertex 10 20.3 0
    endloop
  endfacet
  facet normal -0 0 -1
    outer loop
      vertex 3 -2.5 20.3
      vertex 2.5 -3 20.3
      vertex 3 0 20.3
    endloop
  endfacet
  facet normal 0 0 -1
    outer loop
      vertex 3 0 20.3
      vertex 10 3.29999 20.3
      vertex 10 0 20.3
    endloop
  endfacet
  facet normal 0 0 -1
    outer loop
      vertex -2.5 -3 20.3
      vertex 3 0 20.3
      vertex 2.5 -3 20.3
    endloop
  endfacet
  facet normal 0 0 -1
    outer loop
      vertex -3 0 20.3
      vertex -2.5 -3 20.3
      vertex -3 -2.5 20.3
    endloop
  endfacet
  facet normal 0 0 -1
    outer loop
      vertex -2.5 -3 20.3
      vertex -3 0 20.3
      vertex 3 0 20.3
    endloop
  endfacet
  facet normal 0 0 -1
    outer loop
      vertex 3 0 20.3
      vertex -3 0 20.3
      vertex 10 3.29999 20.3
    endloop
  endfacet
  facet normal 0 0 -1
    outer loop
      vertex -10 3.29999 20.3
      vertex -3 0 20.3
      vertex -10 0 20.3
    endloop
  endfacet
  facet normal 0 0 -1
    outer loop
      vertex -3 0 20.3
      vertex -10 3.29999 20.3
      vertex 10 3.29999 20.3
    endloop
  endfacet
  facet normal 0 -0.707107 -0.707107
    outer loop
      vertex -10 4 19.6
      vertex 10 3.29999 20.3
      vertex -10 3.29999 20.3
    endloop
  endfacet
  facet normal 0 -0.707107 -0.707107
    outer loop
      vertex -10 4 19.6
      vertex 10 4 19.6
      vertex 10 3.29999 20.3
    endloop
  endfacet
  facet normal 0 -0.707107 -0.707107
    outer loop
      vertex -10 19.6 4
      vertex 10 4 19.6
      vertex -10 4 19.6
    endloop
  endfacet
  facet normal 0 -0.707107 -0.707107
    outer loop
      vertex -10 19.6 4
      vertex 10 19.6 4
      vertex 10 4 19.6
    endloop
  endfacet
  facet normal 0 -0.707107 -0.707107
    outer loop
      vertex -10 20.3 3.29999
      vertex 10 19.6 4
      vertex -10 19.6 4
    endloop
  endfacet
  facet normal 0 -0.707107 -0.707107
    outer loop
      vertex 10 19.6 4
      vertex -10 20.3 3.29999
      vertex 10 20.3 3.29999
    endloop
  endfacet
endsolid OpenSCAD_Model
